<?xml version="1.0" encoding="UTF-8"?>
<!DOCTYPE svg PUBLIC "-//W3C//DTD SVG 1.1//EN" "http://www.w3.org/Graphics/SVG/1.1/DTD/svg11.dtd">
<!-- Creator: CorelDRAW X8 -->
<svg xmlns="http://www.w3.org/2000/svg" xml:space="preserve" width="228.642mm" height="147.405mm" version="1.1" style="shape-rendering:geometricPrecision; text-rendering:geometricPrecision; image-rendering:optimizeQuality; fill-rule:evenodd; clip-rule:evenodd"
viewBox="0 0 22864 14741"
 xmlns:xlink="http://www.w3.org/1999/xlink">
 <defs>
  <style type="text/css">
   <![CDATA[
    .fil0 {fill:#C29216}
   ]]>
  </style>
 </defs>
 <g id="Layer_x0020_1">
  <metadata id="CorelCorpID_0Corel-Layer"/>
  <g id="_1715597710336">
   <path class="fil0" d="M0 0l11465 0 6486 14741 -17951 -99 0 -14642zm13692 10466l786 0 0 2981 -786 0 0 -2981zm-2227 0l786 0 0 2981 -786 0 0 -2981zm-2031 0l786 0 0 2981 -786 0 0 -2981zm-2195 0l786 0 0 2981 -786 0 0 -2981zm-2031 0l786 0 0 2981 -786 0 0 -2981zm-1769 0l787 0 0 2981 -787 0 0 -2981zm-1572 0l786 0 0 2981 -786 0 0 -2981zm-1376 0l787 0 0 2981 -787 0 0 -2981zm11105 -4619l786 0 0 2981 -786 0 0 -2981zm-2195 0l786 0 0 2981 -786 0 0 -2981zm-2162 0l786 0 0 2981 -786 0 0 -2981zm-2067 0l786 0 0 2981 -786 0 0 -2981zm-1765 0l786 0 0 2981 -786 0 0 -2981zm-1573 0l787 0 0 2981 -787 0 0 -2981zm-1343 0l787 0 0 2981 -787 0 0 -2981zm9074 -4635l786 0 0 2981 -786 0 0 -2981zm-2359 0l787 0 0 2981 -787 0 0 -2981zm-1998 0l786 0 0 2981 -786 0 0 -2981zm-1769 0l787 0 0 2981 -787 0 0 -2981zm-1605 0l787 0 0 2981 -787 0 0 -2981zm-1343 0l787 0 0 2981 -787 0 0 -2981z"/>
   <path class="fil0" d="M22831 4586l-8811 33 4389 10089 4455 -66 -33 -10056zm-1113 5847l786 0 0 2981 -786 0 0 -2981zm-1442 0l787 0 0 2981 -787 0 0 -2981zm-1572 0l786 0 0 2981 -786 0 0 -2981zm2981 -4651l786 0 0 2980 -786 0 0 -2980zm-1409 0l787 0 0 2980 -787 0 0 -2980zm-1572 0l786 0 0 2980 -786 0 0 -2980zm-2129 0l786 0 0 2980 -786 0 0 -2980z"/>
  </g>
 </g>
</svg>
