<?xml version="1.0" encoding="UTF-8"?>
<!DOCTYPE svg PUBLIC "-//W3C//DTD SVG 1.1//EN" "http://www.w3.org/Graphics/SVG/1.1/DTD/svg11.dtd">
<!-- Creator: CorelDRAW X8 -->
<svg xmlns="http://www.w3.org/2000/svg" xml:space="preserve" width="113.671mm" height="154.528mm" version="1.1" style="shape-rendering:geometricPrecision; text-rendering:geometricPrecision; image-rendering:optimizeQuality; fill-rule:evenodd; clip-rule:evenodd"
viewBox="0 0 11367 15453"
 xmlns:xlink="http://www.w3.org/1999/xlink">
 <defs>
  <style type="text/css">
   <![CDATA[
    .fil0 {fill:#C29216}
   ]]>
  </style>
 </defs>
 <g id="Layer_x0020_1">
  <metadata id="CorelCorpID_0Corel-Layer"/>
  <g id="_1715597733760">
   <path class="fil0" d="M2533 3040c-259,0 -442,-1 -648,-303 -510,-748 201,-2104 1028,-2104 626,0 853,720 698,1332 -116,460 -586,1075 -1078,1075zm-1456 -1045c0,578 122,1125 569,1425 -47,90 -81,191 -126,285 -47,97 -89,199 -136,307 -95,222 -173,399 -267,620l-325 751c-127,169 -317,33 -317,411 0,361 197,-167 -172,715 -128,306 -303,586 -303,837 0,171 157,285 317,285 283,0 355,-334 444,-538l284 -697c133,36 216,139 321,217l1583 1203c1173,880 250,315 2839,-414 953,-268 1414,-137 2286,-721l822 4436c47,216 -16,278 -119,446l-903 1725c-83,166 -149,277 -233,433 -161,299 -300,586 -453,876l-3312 235c-244,75 -453,742 475,601 293,-44 1538,-83 1895,-131l979 -67c405,-41 360,16 585,-428 65,-128 113,-192 180,-326 65,-131 119,-238 179,-359l1056 -2016c84,-170 316,-533 357,-690 22,-87 -812,-4669 -938,-5210 220,-147 669,-703 855,-950 581,-773 909,-1407 1340,-2269 93,-186 528,-1102 528,-1277 0,-312 -235,-317 -411,-317 -178,0 -274,335 -335,489 -626,1570 -2101,4283 -3757,4633 -246,52 -493,85 -724,131 -701,142 -1538,426 -2172,742 -94,46 -211,126 -295,148 -628,-421 -1782,-1397 -2343,-1773l886 -2058c490,0 829,-55 1191,-330 1489,-1132 966,-3375 -367,-3375 -410,0 -553,2 -937,235 -580,349 -1026,1101 -1026,1760z"/>
   <path class="fil0" d="M5509 8391c0,116 732,1223 880,1466 70,116 69,107 33,266l-628 2954 -3134 -507c-243,-40 -792,-173 -792,254 0,358 545,365 851,416 386,64 3089,534 3360,534 321,0 337,-431 415,-821 69,-350 630,-2898 630,-3106 0,-74 -618,-1034 -703,-1165 -76,-119 -294,-505 -385,-565 -114,-75 -220,-88 -348,-24 -96,49 -179,183 -179,298z"/>
   <path class="fil0" d="M5414 4306c0,-248 47,-538 412,-538 872,0 1160,1520 792,1520 -534,0 -1204,-507 -1204,-982zm-665 -63c0,702 539,1248 1129,1531 776,373 1531,123 1531,-645 0,-586 -103,-1011 -452,-1447 -807,-1006 -2208,-597 -2208,561z"/>
   <path class="fil0" d="M5509 1362c817,0 875,72 792,-285 -173,-41 -295,-32 -507,-32 7,-5 17,-18 20,-12l158 -64c75,-22 136,-34 203,-50 445,-110 325,-426 -19,-339 -160,41 -273,81 -425,117 124,-185 348,-200 348,-444 0,-74 -52,-126 -126,-126 -180,0 -276,180 -390,275 -129,109 -249,179 -363,302 -302,325 -243,658 309,658z"/>
  </g>
 </g>
</svg>
