<?xml version="1.0" encoding="UTF-8"?>
<!DOCTYPE svg PUBLIC "-//W3C//DTD SVG 1.1//EN" "http://www.w3.org/Graphics/SVG/1.1/DTD/svg11.dtd">
<!-- Creator: CorelDRAW X8 -->
<svg xmlns="http://www.w3.org/2000/svg" xml:space="preserve" width="169.52mm" height="146.736mm" version="1.1" style="shape-rendering:geometricPrecision; text-rendering:geometricPrecision; image-rendering:optimizeQuality; fill-rule:evenodd; clip-rule:evenodd"
viewBox="0 0 16952 14674"
 xmlns:xlink="http://www.w3.org/1999/xlink">
 <defs>
  <style type="text/css">
   <![CDATA[
    .fil0 {fill:#C29216}
    .fil1 {fill:#E5C772}
   ]]>
  </style>
 </defs>
 <g id="Layer_x0020_1">
  <metadata id="CorelCorpID_0Corel-Layer"/>
  <g id="_2581406595728">
   <path class="fil0" d="M2268 12028c0,284 105,388 388,388l11640 0c442,0 388,-266 389,-635l-1 -4444 -12416 0 0 4691z"/>
   <path class="fil0" d="M2268 7337l12416 0 1 4444c-1,369 53,635 -389,635l-11640 0c-283,0 -388,-104 -388,-388l0 -4691zm12980 -1l1130 0 0 566 -1129 -1 -1 -565zm-14673 0l1129 1 0 565 -1129 0 0 -566zm6984 -1692l1834 0c68,291 336,926 353,1128l-2540 0c13,-151 127,-431 172,-568 61,-184 138,-377 181,-560zm6102 1128c-401,0 -386,-200 -388,-564l1976 0c0,388 16,563 -424,565l-1164 -1zm-12239 -1975l2257 0c0,2229 188,1976 -1023,1976 -695,0 -1235,121 -1234,-353l-1 -1482 1 -141zm8579 852l1017 -7 0 1133 -649 -2 -368 -1124zm-4066 -7l249 0 176 0 459 -2 137 13 -368 1121 -653 0 0 -778 0 -176 0 -178zm7338 -563l1976 0c0,640 -117,564 -812,565 -715,0 -1164,115 -1164,-388l0 -177zm-7334 -1129l5077 0 0 1129 -5079 0 0 -670 2 -459zm7334 0l1976 0c0,726 -250,564 -1023,565 -567,0 -953,158 -953,-459l0 -106zm-6772 -564c1,-769 -93,-1252 347,-1769 402,-471 838,-489 1628,-488 790,0 1226,15 1629,488 439,517 347,1000 347,1769l-3951 0zm1693 -2822l-388 0c-964,0 -1869,906 -1869,1870l0 952c-325,0 -565,252 -565,494l0 2892 -1164 0c80,-341 35,-1543 35,-1975l565 0 0 -564 -2893 0c-39,-169 -104,-333 -163,-507 -137,-413 -296,-1186 -930,-1186l-529 0 0 564c675,0 620,-29 780,454 52,155 194,512 207,675l-987 0 0 564 564 0c0,432 -44,1634 35,1975 -256,0 -437,-33 -600,70 -375,236 -281,582 -281,1130 0,220 273,494 493,494l1200 0 0 3739c0,388 388,776 776,776l635 0 0 1693 564 0 0 -1693 9594 0 0 1693 565 0 0 -1693 635 0c388,0 776,-388 776,-776l0 -3739 1199 0c220,0 494,-274 494,-494 0,-493 101,-981 -350,-1167 -187,-77 -565,-33 -814,-33 58,-250 35,-264 35,-564l565 0 0 -564 -600 0c58,-251 35,-265 35,-565l565 0 0 -564 -600 0c58,-250 35,-265 35,-564l565 0 0 -565 -4233 0 0 565 564 0c0,299 -23,314 35,564l-599 0 0 564 564 0c0,300 -23,314 35,565l-599 0 0 564 564 0c0,300 -23,314 35,564l-1164 0 0 -2892c0,-206 -227,-494 -564,-494 0,-930 117,-1564 -590,-2267 -517,-514 -987,-555 -1668,-555l0 -564 -564 0 0 564z"/>
   <path class="fil1" d="M6501 3386l3951 0c0,-769 92,-1252 -347,-1769 -403,-473 -839,-488 -1629,-488 -790,-1 -1226,17 -1628,488 -440,517 -346,1000 -347,1769z"/>
   <polygon class="fil1" points="5935,5820 5935,5996 5935,6774 6588,6774 6956,5653 6819,5640 6360,5642 6184,5642 5935,5642 "/>
   <polygon class="fil1" points="10369,6773 11018,6775 11018,5642 10001,5649 "/>
  </g>
 </g>
</svg>
