<?xml version="1.0" encoding="UTF-8"?>
<!DOCTYPE svg PUBLIC "-//W3C//DTD SVG 1.1//EN" "http://www.w3.org/Graphics/SVG/1.1/DTD/svg11.dtd">
<!-- Creator: CorelDRAW X8 -->
<svg xmlns="http://www.w3.org/2000/svg" xml:space="preserve" width="118.516mm" height="118.618mm" version="1.1" style="shape-rendering:geometricPrecision; text-rendering:geometricPrecision; image-rendering:optimizeQuality; fill-rule:evenodd; clip-rule:evenodd"
viewBox="0 0 11852 11862"
 xmlns:xlink="http://www.w3.org/1999/xlink">
 <defs>
  <style type="text/css">
   <![CDATA[
    .fil0 {fill:#C29216}
   ]]>
  </style>
 </defs>
 <g id="Layer_x0020_1">
  <metadata id="CorelCorpID_0Corel-Layer"/>
  <g id="_2581403712096">
   <path class="fil0" d="M3451 5151l598 -5 -290 302 -308 -297zm-686 -252c0,178 48,184 167,302 123,122 623,583 623,661l0 271 -3357 0c-120,0 -198,78 -198,198l0 790c0,129 76,187 198,197l0 4543 395 0 0 -4543 7111 0 0 -395 -7309 0 0 -395 11061 0 0 395 -2567 0 0 395 2370 0 0 4543 395 0 0 -4543c90,-2 198,-41 198,-148l0 -839c0,-120 -79,-198 -198,-198l-7703 0c0,-428 -42,-267 401,-710 76,-76 134,-134 210,-210 122,-121 179,-131 179,-314 0,-80 -108,-149 -198,-149l-1630 0c-59,0 -148,89 -148,149z"/>
   <path class="fil0" d="M11061 2973c105,0 202,80 249,147 241,343 97,662 97,1038l-691 0c0,-229 -157,-907 182,-1127 28,-18 132,-58 163,-58zm-1975 0c105,0 201,80 248,147 242,343 98,662 98,1038l-691 0c0,-238 -74,-530 -29,-744 40,-186 162,-441 374,-441zm-1975 0c207,0 334,253 374,441 45,214 -28,506 -28,744l-692 0c0,-389 -141,-683 88,-1024 61,-90 159,-161 258,-161zm-395 -1383c0,112 53,129 99,198 -394,0 -692,-77 -692,197 0,277 369,198 790,198 0,557 32,370 -208,532 -456,308 -421,1014 -342,1500 72,448 85,338 1266,338 185,0 200,-153 227,-317 50,-303 45,-465 45,-769 0,-602 -535,-836 -554,-854 -47,-42 -39,33 -39,-60l0 -370 1581 0c0,557 31,370 -209,532 -456,308 -421,1014 -342,1500 72,448 85,338 1267,338 184,0 199,-153 226,-317 50,-303 45,-465 45,-769 0,-602 -535,-836 -554,-854 -46,-42 -38,33 -38,-60l0 -370 1580 0c0,557 32,370 -208,532 -457,308 -422,1014 -343,1500 73,448 85,338 1267,338 184,0 199,-153 226,-317 50,-303 46,-465 46,-769 0,-221 -100,-411 -193,-549 -60,-90 -93,-132 -177,-193l-185 -112c-46,-42 -38,33 -38,-60l0 -370 593 0 0 -395 -494 0c69,-103 98,-56 98,-198 0,-258 -295,-197 -592,-197 -120,0 -198,78 -198,197 0,112 53,129 99,198l-1383 0c69,-103 99,-56 99,-198 0,-258 -296,-197 -592,-197 -120,0 -198,78 -198,197 0,112 53,129 99,198l-1383 0c69,-103 99,-56 99,-198 0,-258 -296,-197 -593,-197 -119,0 -197,78 -197,197z"/>
   <path class="fil0" d="M3555 2948l0 -1531c0,-122 101,-222 223,-222l740 0c122,0 223,100 223,222l0 1531c0,122 -101,222 -223,222l-740 0c-122,0 -223,-100 -223,-222zm-2370 0l0 -1531c0,-122 100,-222 222,-222l741 0c122,0 222,100 222,222l0 1531c0,122 -100,222 -222,222l-741 0c-122,0 -222,-100 -222,-222zm2766 -2543l395 0 0 395 -395 0 0 -395zm-2371 0l395 0 0 395 -395 0 0 -395zm-395 420c-99,52 -192,89 -262,182 -62,81 -133,205 -133,336 0,348 -33,1578 25,1827l-420 0 0 395 5136 0 0 -395 -420 0c58,-249 25,-1479 25,-1827 0,-273 -190,-410 -395,-518 0,-965 183,-815 -1037,-815 -222,0 -149,529 -149,815 -183,97 -395,233 -395,518 0,348 -33,1578 25,1827l-444 0c58,-249 24,-1479 24,-1827 0,-273 -189,-410 -395,-518 0,-165 -1,-330 1,-495 4,-416 -104,-320 -988,-320 -276,0 -198,393 -198,815z"/>
   <path class="fil0" d="M4938 8306l1975 0 0 395 -1975 0 0 -395zm-395 -247l0 889c0,80 107,148 198,148l987 0 0 2370c-296,0 -592,-60 -592,198 0,119 78,197 197,197l1235 0c184,0 230,-395 -50,-395l-395 0 0 -2370 988 0c119,0 197,-78 197,-197l0 -791c0,-119 -78,-197 -197,-197l-2420 0c-59,0 -148,89 -148,148z"/>
   <path class="fil0" d="M1383 8306l1975 0 0 395 -1975 0 0 -395zm-395 -247l0 840c0,119 78,197 197,197l988 0 0 2370c-297,0 -593,-60 -593,198 0,90 68,197 148,197l1235 0c288,0 218,-395 49,-395l-444 0 0 -2370 987 0c120,0 198,-78 198,-197l0 -791c0,-90 -68,-197 -148,-197l-2469 0c-60,0 -148,89 -148,148z"/>
   <path class="fil0" d="M8494 8306l1975 0 0 395 -1975 0 0 -395zm-395 -198l0 791c0,119 78,197 197,197l988 0 0 2370c-407,0 -593,-61 -593,247 0,80 107,148 198,148l1234 0c185,0 231,-395 -49,-395l-395 0 0 -2370 987 0c120,0 198,-78 198,-197l0 -791c0,-119 -78,-197 -198,-197l-2370 0c-119,0 -197,78 -197,197z"/>
   <polygon class="fil0" points="3951,1985 4346,1985 4346,1590 3951,1590 "/>
   <polygon class="fil0" points="8099,7318 8494,7318 8494,6923 8099,6923 "/>
   <polygon class="fil0" points="1580,1985 1975,1985 1975,1590 1580,1590 "/>
  </g>
 </g>
</svg>
