<?xml version="1.0" encoding="UTF-8"?>
<!DOCTYPE svg PUBLIC "-//W3C//DTD SVG 1.1//EN" "http://www.w3.org/Graphics/SVG/1.1/DTD/svg11.dtd">
<!-- Creator: CorelDRAW X8 -->
<svg xmlns="http://www.w3.org/2000/svg" xml:space="preserve" width="135.153mm" height="135.103mm" version="1.1" style="shape-rendering:geometricPrecision; text-rendering:geometricPrecision; image-rendering:optimizeQuality; fill-rule:evenodd; clip-rule:evenodd"
viewBox="0 0 13515 13510"
 xmlns:xlink="http://www.w3.org/1999/xlink">
 <defs>
  <style type="text/css">
   <![CDATA[
    .fil0 {fill:#C29216}
   ]]>
  </style>
 </defs>
 <g id="Layer_x0020_1">
  <metadata id="CorelCorpID_0Corel-Layer"/>
  <g id="_2581395938848">
   <path class="fil0" d="M7215 10905l0 -1641c0,-54 94,-48 151,-56 227,-30 854,-169 1048,-247 61,-25 92,-42 179,-42 13,56 64,142 92,198l290 620c33,71 57,134 87,202 32,70 60,135 93,211l132 323c16,40 22,82 37,115 -44,10 -70,22 -116,35l-372 83c-384,77 -1240,199 -1621,199zm-514 2605l-120 0 0 0c-282,0 -494,-301 -497,-468l-13 -1682c-612,0 -1207,-100 -1785,-215 -537,-108 -493,-184 -601,35l-211 464c-213,444 -415,959 -652,1402 -156,291 -615,330 -863,82 -319,-320 -97,-636 62,-1006l548 -1258c121,-275 1132,-2522 1158,-2634l-507 -430c-33,-31 -57,-58 -89,-90 -35,-35 -62,-61 -97,-96l-420 -504c-109,-146 -203,-284 -301,-443l-259 -486c-41,-90 -77,-161 -115,-257 -130,-326 -177,-491 -261,-856 -57,-250 -88,-435 -88,-712 0,-194 121,-353 262,-455 89,-64 154,-55 303,-55 129,1 210,-13 345,-13 473,0 947,0 1420,0 480,0 921,-14 1406,-14 947,0 1893,0 2840,0 485,0 925,14 1406,14 473,0 947,0 1420,0 135,0 216,14 345,13 163,0 198,-17 313,46 119,65 279,249 279,423 0,368 -23,476 -102,835 -81,369 -248,819 -412,1146l-280 492c-31,48 -48,80 -79,127 -233,350 -636,802 -962,1065l-481 388c87,163 266,593 359,799l358 800c24,50 50,108 73,162l280 630c193,465 431,949 628,1426 88,213 233,469 166,707 -127,452 -653,484 -915,276 -144,-115 -614,-1268 -737,-1524l-212 -463c-25,-51 -42,-103 -68,-152 -82,1 -209,39 -289,56 -88,18 -173,41 -269,62 -436,97 -718,125 -1156,181l-616 45c0,172 7,1721 -23,1797 -5,13 -65,95 -79,114 -146,195 -264,223 -412,226zm-1968 -4701c222,118 1114,368 1338,386l0 1710c-380,0 -747,-65 -1089,-111 -199,-28 -856,-134 -1007,-206l758 -1779z"/>
   <path class="fil0" d="M11985 3130l-10450 0c-8,-96 -86,-183 -133,-239 -21,-25 -16,-23 -36,-47 -31,-37 -198,-169 -260,-196 -150,-63 -239,-56 -398,-56 -337,0 -701,329 -707,788 -5,316 171,573 417,701 252,132 626,114 838,-72 104,-91 267,-237 279,-383l10450 0c34,146 172,286 272,375 422,376 1258,96 1258,-554 0,-259 -20,-427 -217,-624 -287,-287 -672,-317 -1008,-91 -114,77 -270,248 -305,398z"/>
   <path class="fil0" d="M6388 207c0,209 483,477 142,942 -188,254 -404,451 -404,905 0,192 65,411 133,543 295,577 597,261 597,133 0,-184 -262,-346 -262,-621 0,-180 0,-257 108,-416 29,-43 55,-80 89,-118 203,-226 313,-449 313,-761 0,-245 -27,-304 -128,-506 -110,-222 -234,-302 -339,-308l-27 0c-128,8 -222,121 -222,207z"/>
   <path class="fil0" d="M8580 621c0,191 206,275 206,482 0,115 -34,205 -86,272l-158 201c-494,655 50,1603 386,1296 238,-219 -128,-373 -128,-694 0,-372 384,-475 438,-886 52,-394 -152,-878 -438,-878 -83,0 -220,128 -220,207z"/>
   <path class="fil0" d="M4513 634c0,183 371,392 124,731 -260,358 -359,382 -359,896 0,270 228,676 428,676 93,0 234,-86 234,-249 0,-120 -207,-259 -207,-510 0,-456 441,-388 441,-1089 0,-323 -224,-675 -427,-675 -102,0 -234,119 -234,220z"/>
   <path class="fil0" d="M10661 1241c0,96 77,201 119,267 31,51 51,74 29,127 -73,175 -313,304 -313,695 0,301 192,607 372,607 111,0 234,-136 234,-249 0,-149 -138,-164 -138,-358 0,-215 304,-376 304,-676 0,-172 -2,-288 -110,-441 -293,-413 -497,-35 -497,28z"/>
   <path class="fil0" d="M2652 1268c0,142 138,169 138,331 0,204 -304,219 -304,786 0,226 222,713 511,497 216,-161 -56,-410 -56,-538 0,-209 317,-374 317,-745 0,-242 -180,-579 -386,-579 -127,0 -220,121 -220,248z"/>
  </g>
 </g>
</svg>
