<?xml version="1.0" encoding="UTF-8"?>
<!DOCTYPE svg PUBLIC "-//W3C//DTD SVG 1.1//EN" "http://www.w3.org/Graphics/SVG/1.1/DTD/svg11.dtd">
<!-- Creator: CorelDRAW X8 -->
<svg xmlns="http://www.w3.org/2000/svg" xml:space="preserve" width="262.687mm" height="179.832mm" version="1.1" style="shape-rendering:geometricPrecision; text-rendering:geometricPrecision; image-rendering:optimizeQuality; fill-rule:evenodd; clip-rule:evenodd"
viewBox="0 0 26269 17983"
 xmlns:xlink="http://www.w3.org/1999/xlink">
 <defs>
  <style type="text/css">
   <![CDATA[
    .fil0 {fill:#C29216}
   ]]>
  </style>
 </defs>
 <g id="Layer_x0020_1">
  <metadata id="CorelCorpID_0Corel-Layer"/>
  <g id="_1715534684064">
   <path class="fil0" d="M0 0l26269 0 0 17983 -26269 0 0 -17983zm901 1037l11655 0 925 0 11786 0 0 16175 -11786 0 -925 0 -11655 0 0 -16175zm11655 0l925 0 0 16175 -925 0 0 -16175z"/>
   <polygon class="fil0" points="901,4845 901,3887 4699,3876 4710,14035 901,14035 901,13095 3750,13090 3746,4851 "/>
   <polygon class="fil0" points="25267,4796 25267,3839 21469,3827 21458,13986 25267,13986 25267,13046 22418,13041 22422,4802 "/>
   <path class="fil0" d="M13153 4222c2739,0 4960,2197 4960,4907 0,2711 -2221,4908 -4960,4908 -2739,0 -4960,-2197 -4960,-4908 0,-2710 2221,-4907 4960,-4907zm0 1065c2145,0 3884,1720 3884,3842 0,2123 -1739,3843 -3884,3843 -2145,0 -3884,-1720 -3884,-3843 0,-2122 1739,-3842 3884,-3842z"/>
  </g>
 </g>
</svg>
