<?xml version="1.0" encoding="UTF-8"?>
<!DOCTYPE svg PUBLIC "-//W3C//DTD SVG 1.1//EN" "http://www.w3.org/Graphics/SVG/1.1/DTD/svg11.dtd">
<!-- Creator: CorelDRAW X8 -->
<svg xmlns="http://www.w3.org/2000/svg" xml:space="preserve" width="180.593mm" height="158.071mm" version="1.1" style="shape-rendering:geometricPrecision; text-rendering:geometricPrecision; image-rendering:optimizeQuality; fill-rule:evenodd; clip-rule:evenodd"
viewBox="0 0 18059 15807"
 xmlns:xlink="http://www.w3.org/1999/xlink">
 <defs>
  <style type="text/css">
   <![CDATA[
    .fil0 {fill:#C29216}
   ]]>
  </style>
 </defs>
 <g id="Layer_x0020_1">
  <metadata id="CorelCorpID_0Corel-Layer"/>
  <g id="_1715532772864">
   <path class="fil0" d="M2821 14290l12416 0c-50,76 -672,741 -776,741l-10864 0c-103,0 -725,-665 -776,-741zm11570 -3809l952 -3704 1905 0c-191,398 43,2139 -1664,3239 -563,362 -1086,414 -1193,465zm-5609 3069c-1633,0 -2504,57 -3869,-752 -509,-302 -1044,-809 -1386,-1294 -732,-1037 -850,-1987 -1185,-3330 -124,-494 -243,-969 -360,-1439l-360 -1475 13333 0c-87,182 -670,2613 -733,2865 -256,1023 -397,1898 -842,2791 -861,1727 -2613,2634 -4598,2634zm-4127 0l-4370 3c-390,62 -371,653 3,730 210,44 1048,-24 1335,6 201,22 886,800 1048,963 286,285 465,555 785,555l11146 0c345,0 577,-347 768,-538 1149,-1149 751,-979 1702,-979 379,0 987,124 987,-388 0,-489 -656,-352 -1270,-352l-4903 0 636 -459c633,-484 1143,-1128 1516,-1834 595,0 1359,-259 1735,-487 969,-587 1642,-1298 1962,-2483l324 -1898c0,-219 -180,-388 -388,-388l-2116 0c10,-451 406,-1062 162,-1362 -34,-41 -139,-119 -197,-119l-14427 0c-572,0 -241,835 -169,1121l994 3979c360,1444 902,2494 2008,3389 84,68 159,133 235,188 120,86 421,253 494,353z"/>
   <path class="fil0" d="M7513 357c0,870 736,1034 767,1489 21,318 -275,485 -430,683 -929,1183 334,1584 434,857 66,-486 235,-329 577,-869 345,-544 161,-1206 -316,-1675 -158,-155 -224,-177 -258,-448 -78,-623 -774,-408 -774,-37z"/>
   <path class="fil0" d="M9770 357c0,357 136,615 306,823 107,131 148,180 268,297 688,670 -574,902 -574,1879 0,462 698,569 771,30 67,-486 236,-329 578,-869 344,-544 160,-1206 -317,-1675 -157,-155 -224,-177 -258,-448 -78,-623 -774,-408 -774,-37z"/>
   <path class="fil0" d="M5255 357c0,491 267,821 574,1120 564,549 -193,834 -457,1396 -450,956 569,1135 654,513 67,-486 236,-329 578,-869 222,-351 227,-909 13,-1264 -303,-503 -535,-439 -588,-859 -78,-623 -774,-408 -774,-37z"/>
  </g>
 </g>
</svg>
