<?xml version="1.0" encoding="UTF-8"?>
<!DOCTYPE svg PUBLIC "-//W3C//DTD SVG 1.1//EN" "http://www.w3.org/Graphics/SVG/1.1/DTD/svg11.dtd">
<!-- Creator: CorelDRAW X8 -->
<svg xmlns="http://www.w3.org/2000/svg" xml:space="preserve" width="250.419mm" height="294.615mm" version="1.1" style="shape-rendering:geometricPrecision; text-rendering:geometricPrecision; image-rendering:optimizeQuality; fill-rule:evenodd; clip-rule:evenodd"
viewBox="0 0 25042 29461"
 xmlns:xlink="http://www.w3.org/1999/xlink">
 <defs>
  <style type="text/css">
   <![CDATA[
    .fil0 {fill:#C29216}
   ]]>
  </style>
 </defs>
 <g id="Layer_x0020_1">
  <metadata id="CorelCorpID_0Corel-Layer"/>
  <g id="_1715534145616">
  </g>
  <g id="_1715538233168">
  </g>
  <g id="_1715538230352">
  </g>
  <g id="_1715538231600">
  </g>
  <g id="_1715538228560">
  </g>
  <g id="_1715538225840">
  </g>
  <g id="_1715538227120">
  </g>
  <g id="_1715538224240">
  </g>
  <g id="_1715538223824">
  </g>
  <g id="_1715538222768">
  </g>
  <g id="_1715538222640">
  </g>
  <g id="_1715538223376">
  </g>
  <g id="_1715538223024">
  </g>
  <g id="_1715538220080">
  </g>
  <g id="_1715538221168">
  </g>
  <path class="fil0" d="M15819 25090l5509 0c269,0 166,335 206,633 33,254 71,596 88,809 48,572 125,1079 125,1672l-5928 0 0 -3114zm-2634 -3832l1437 0 0 6946 -1437 0 0 -6946zm-2635 0l1437 0 0 6946 -1437 0 0 -6946zm-6707 3832l5509 0 0 3114 -5928 0 205 -2430c42,-301 -49,-684 214,-684zm5330 -1198c-253,0 -333,-43 -485,-48l-713 48c-253,0 -333,-43 -485,-48l-713 48c-253,0 -333,-43 -484,-48l-713 48c-253,0 -333,-43 -485,-48l-833 48c-206,0 -231,-44 -419,-59 0,-667 863,-9552 949,-10369l309 -3524 14910 0c0,494 106,1245 163,1694l673 6991c87,1293 481,4279 481,5267l-1377 0c-253,0 -333,-43 -485,-48l-713 48c-252,0 -333,-43 -484,-48l-713 48c-253,0 -333,-43 -485,-48l-833 48c-206,0 -231,-44 -419,-59l4 -3237c-15,-346 -199,-596 -543,-596l-5269 0c-873,0 -659,816 -659,1677l5 1801c2,224 47,414 -184,414zm-3713 -17784l14132 0 180 2097c22,290 151,538 -120,538l-14252 0c-314,0 -91,-453 -59,-1197 20,-475 119,-935 119,-1438zm7725 -4850l1437 0 0 3592 -1437 0 0 -3592zm-2635 0l1437 0 0 3592 -1437 0 0 -3592zm-1198 -719l0 4311 -4371 0c-685,0 -644,899 -708,1508 -72,675 -144,1388 -184,2032 -17,284 65,301 -185,354 -506,105 -2901,-189 -3220,132 -415,417 -47,1064 285,1064l2874 0c0,644 -832,9460 -948,10549l-245 2630c-63,827 52,773 -663,773 -295,0 -361,-62 -582,-43 -171,14 -339,45 -617,42 -1206,-15 -814,1199 -238,1199l1916 0 -185 1911c-122,1457 -557,2460 544,2460l19641 0c945,0 541,-1320 429,-2404l-189 -1967c519,0 1886,96 2140,-135 215,-196 387,-872 -237,-1051 -347,-99 -596,-12 -1065,-12 -253,0 -333,-43 -485,-48 -202,-6 -199,48 -473,48l-664 -6940c-95,-1133 -254,-2348 -349,-3484 -86,-1027 -305,-2663 -305,-3528l2815 0c670,0 733,-1105 56,-1194 -275,-36 -829,-3 -1134,-3l-1624 7c-293,-12 -277,-20 -298,-301l-289 -3064c-56,-320 -245,-535 -603,-535l-4372 0 0 -4311c0,-367 -285,-539 -658,-539l-5210 0c-303,0 -599,216 -599,539z"/>
 </g>
</svg>
