<?xml version="1.0" encoding="UTF-8"?>
<!DOCTYPE svg PUBLIC "-//W3C//DTD SVG 1.1//EN" "http://www.w3.org/Graphics/SVG/1.1/DTD/svg11.dtd">
<!-- Creator: CorelDRAW X8 -->
<svg xmlns="http://www.w3.org/2000/svg" xml:space="preserve" width="498.5mm" height="425.882mm" version="1.1" style="shape-rendering:geometricPrecision; text-rendering:geometricPrecision; image-rendering:optimizeQuality; fill-rule:evenodd; clip-rule:evenodd"
viewBox="0 0 49850 42588"
 xmlns:xlink="http://www.w3.org/1999/xlink">
 <defs>
  <style type="text/css">
   <![CDATA[
    .fil0 {fill:#C29216}
   ]]>
  </style>
 </defs>
 <g id="Layer_x0020_1">
  <metadata id="CorelCorpID_0Corel-Layer"/>
  <g id="_1715534659936">
  </g>
  <g id="_1715534660928">
  </g>
  <g id="_1715534661376">
  </g>
  <g id="_1715534657088">
  </g>
  <g id="_1715534656512">
  </g>
  <g id="_1715534655296">
  </g>
  <g id="_1715534653664">
  </g>
  <g id="_1715534654304">
  </g>
  <g id="_1715534651712">
  </g>
  <g id="_1715534652768">
  </g>
  <g id="_1715534650464">
  </g>
  <g id="_1715534650944">
  </g>
  <g id="_1715534648064">
  </g>
  <g id="_1715534648384">
  </g>
  <g id="_1715534647456">
  </g>
  <g id="_1715534707872">
   <path class="fil0" d="M47749 31536c0,3699 -1876,6554 -5062,8155 -6969,3502 -15606,-4250 -11378,-12167 363,-681 592,-934 1022,-1444 180,-213 194,-275 398,-490 2457,-2582 6335,-3239 9737,-1890 2919,1157 5283,4424 5283,7836zm-40244 -22391c0,2454 1435,4010 3121,4868 930,474 1822,716 3048,898 3169,471 9269,-1184 12937,3338 399,492 1213,1835 1213,2634 0,361 -1207,2772 -1379,3158l-3575 7876c-321,1054 1346,2129 2094,408l3025 -6641c229,-453 364,-827 593,-1282 239,-476 387,-902 623,-1349l3255 0c-77,105 -672,624 -831,746 -446,342 -406,441 -771,808 -1030,1036 -1894,2769 -2303,4207 -683,2404 -520,5077 485,7227 701,1501 1561,2831 2842,3865 850,686 1306,1096 2418,1627 2807,1338 6402,1450 9209,65 6370,-3142 8091,-10600 4479,-15923 -1644,-2423 -3986,-3923 -6790,-4554 -1758,-395 -9091,-238 -11204,-238 -711,-3054 -2358,-5341 -5260,-6675 -4515,-2077 -7607,-937 -10694,-1339 -7177,-935 -4682,-7511 374,-7862l1380 -108c512,-21 833,109 1477,102 1519,-15 3941,553 5031,986 723,288 1416,597 2051,1007 1946,1256 3231,2732 4050,5025 1064,2975 -194,3878 1534,4581l6442 2732c889,381 1716,860 2493,860 932,0 1290,-1446 268,-1944l-1169 -509c-817,-332 -1577,-652 -2357,-996l-4633 -1976c0,-1055 -203,-2043 -457,-2896 -126,-424 -276,-889 -432,-1245 -2514,-5723 -8141,-7794 -14203,-7794 -2468,0 -4213,590 -5703,1596 -1219,824 -2681,2707 -2681,4717z"/>
   <path class="fil0" d="M11056 40512c-3437,0 -6454,-1780 -7958,-4766 -1499,-2977 -1219,-6642 797,-9300 3955,-5212 11924,-4390 14855,1440 1422,2828 1113,6391 -717,8950 -1568,2193 -4186,3676 -6977,3676zm-493 2071c4560,0 8142,-2253 10109,-6166 1428,-2840 1387,-6575 -48,-9419 -733,-1454 -1175,-2001 -2244,-3082 -2772,-2805 -7949,-3998 -11896,-2081 -4034,1958 -6106,5173 -6473,9709 -92,1123 417,3383 885,4430 392,874 931,1769 1522,2523 210,269 398,525 622,759 1831,1912 4778,3327 7523,3327z"/>
   <path class="fil0" d="M27923 2240c1524,0 3847,-7 5035,292 845,213 1179,379 1544,1119 990,2011 660,6750 -2263,3447 -1723,-1947 213,-1481 -4097,-4682 -121,-90 -127,-96 -219,-176zm-4735 -1183c0,365 183,627 391,793 620,492 3005,1939 4430,3066 1895,1500 832,1139 2675,3540 1250,1628 4285,3033 5691,461 1173,-2146 885,-5183 -557,-7075 -815,-1069 -2412,-1383 -3680,-1548 -418,-54 -830,5 -1241,-41 -1711,-190 -5490,-120 -6191,-228 -851,-131 -1518,266 -1518,1032z"/>
   <path class="fil0" d="M13029 17135c0,723 209,1089 1178,1090 691,1 1385,-5 2077,-5 85,363 2040,4266 2239,4468 545,550 1955,365 2989,365 1118,0 2235,0 3353,0 83,-353 276,-718 422,-1058 160,-372 358,-680 367,-1112l-5819 0c-179,-767 -1125,-1961 -1184,-2663 1996,0 2663,262 2663,-1283 0,-437 -679,-789 -1183,-789l-5919 0c-636,0 -1183,370 -1183,987z"/>
   <path class="fil0" d="M32855 13189c0,680 559,994 1177,994 757,0 1517,-7 2275,-7 2327,0 3255,-226 3255,1676 0,436 -146,703 -296,987 290,139 600,252 890,393 409,198 570,185 689,692l197 0c240,-901 592,-305 592,-2663 0,-2086 -1765,-3157 -3946,-3157 -1066,0 -3904,-190 -4461,274 -160,133 -372,580 -372,811z"/>
  </g>
 </g>
</svg>
