<?xml version="1.0" encoding="UTF-8"?>
<!DOCTYPE svg PUBLIC "-//W3C//DTD SVG 1.1//EN" "http://www.w3.org/Graphics/SVG/1.1/DTD/svg11.dtd">
<!-- Creator: CorelDRAW X8 -->
<svg xmlns="http://www.w3.org/2000/svg" xml:space="preserve" width="139.725mm" height="90.2208mm" version="1.1" style="shape-rendering:geometricPrecision; text-rendering:geometricPrecision; image-rendering:optimizeQuality; fill-rule:evenodd; clip-rule:evenodd"
viewBox="0 0 13973 9022"
 xmlns:xlink="http://www.w3.org/1999/xlink">
 <defs>
  <style type="text/css">
   <![CDATA[
    .fil0 {fill:#C29216}
   ]]>
  </style>
 </defs>
 <g id="Layer_x0020_1">
  <metadata id="CorelCorpID_0Corel-Layer"/>
  <g id="_2581406538160">
   <path class="fil0" d="M7988 3617l0 0zm-716 -1271l0 0zm0 0c14,51 58,86 111,98 74,-49 130,-123 189,-194 109,-130 247,-241 361,-366 2,-2 4,-5 6,-7l309 -320c103,-111 217,-212 315,-327l338 -353c-13,-58 -49,-81 -89,-120l-32 -30c-29,-26 -65,-52 -76,-84 -97,0 -133,78 -195,138l-166 179c-61,61 -112,113 -173,173l-500 525c-60,60 -112,112 -172,172l-125 135c-28,29 -6,23 -51,35 -5,-60 -27,-101 -42,-156 -14,-50 -29,-125 -32,-177 -24,-392 36,-664 254,-980 169,-245 435,-439 726,-521 452,-127 917,-41 1285,247 62,49 162,148 210,210 133,171 223,357 274,565 97,389 -19,614 -22,738 -29,-20 -38,-33 -65,-58 -3,-2 -11,-9 -14,-12l-33 -27c-9,-8 -9,-7 -20,-18l-62 -62c-133,-120 -255,-257 -389,-375l-191 -191c-24,-24 -38,-40 -62,-62l-201 -182c-72,48 -125,119 -188,182l-162 171c-77,91 -174,163 -251,255 -99,120 -217,229 -327,339l-464 486c-30,37 -63,71 -101,97 61,90 342,344 365,363 11,10 10,9 20,17 77,68 177,154 232,237l-413 179c-200,99 -755,464 -794,477 -148,50 -303,52 -459,60 -56,2 -143,23 -209,16 -37,-3 -28,-15 -75,-4 0,70 20,87 50,124l512 672c35,41 -1,29 68,31 19,-40 7,-60 28,-108l141 -291c151,-305 237,-384 622,-513 254,-85 297,-66 428,-103 3,0 7,-2 9,-2l18 -7c37,17 56,1 111,-1 164,-7 573,63 707,183 42,38 29,36 83,64 -7,88 -42,40 42,119l180 165c41,-21 328,-317 372,-368l316 -326c23,-22 25,-29 46,-53 19,-22 4,-6 24,-25l319 -323c39,-39 53,-66 92,-105l292 -301c1,-2 4,-4 6,-6l88 -97c-32,-37 -182,-201 -226,-219 -102,-42 43,115 -231,-163 -43,-44 -112,-116 -160,-149 40,-84 64,-245 81,-363 70,-483 -189,-1055 -587,-1339 -282,-201 -524,-310 -951,-309 -311,0 -702,161 -909,337 -26,21 -37,39 -63,60 -69,54 -160,171 -214,243 -273,369 -343,906 -191,1355 13,38 25,55 33,90 -58,87 -160,96 -53,201 30,30 37,48 77,59z"/>
   <path class="fil0" d="M9506 6480c0,-122 14,-195 108,-288 238,-237 645,-59 645,250 0,362 -415,504 -627,294 -65,-65 -126,-130 -126,-256zm975 -395l0 -13c58,-120 -85,-273 -263,-214 -54,18 -77,55 -120,66 -30,-365 -432,-325 -432,13 -60,-41 -114,-115 -269,-84 -15,3 -26,7 -44,17 -58,37 -95,111 -81,213 8,55 59,122 86,162 -233,0 -370,230 -183,368 57,43 107,46 183,64 -48,72 -156,219 -34,342 34,34 108,61 175,47 101,-22 97,-44 167,-81 13,151 68,204 173,260l0 1777 87 0 0 -1790c110,-9 163,-133 172,-247 47,17 -1,-1 31,19 92,56 215,101 310,14 65,-60 71,-185 15,-277 -24,-40 -36,-34 -47,-76 268,0 331,-253 181,-366 -47,-35 -104,-54 -181,-54 17,-63 66,-62 74,-160z"/>
   <path class="fil0" d="M831 6467c0,-220 171,-382 333,-382 175,0 315,43 385,220 109,275 -69,508 -327,527 -202,15 -391,-163 -391,-365zm247 -740l0 0zm0 0c-48,35 -85,128 -87,210 -57,-39 -213,-174 -343,-35 -136,145 25,306 35,343 -147,0 -268,92 -269,210 -1,70 38,114 80,151 61,53 166,58 176,69 19,18 -5,21 -29,58 -110,166 2,486 350,252 9,108 69,239 173,247l0 1790 86 0 0 -1790c71,-1 94,-41 124,-86 28,-41 49,-90 49,-161 46,13 26,16 70,42 145,84 352,36 324,-188 -10,-86 -57,-107 -73,-174 336,0 338,-420 -12,-420 170,-254 66,-420 -147,-394 -79,10 -109,50 -162,86 0,-256 -251,-339 -345,-210z"/>
   <path class="fil0" d="M12048 6591l0 0zm346 -124c0,-210 164,-382 333,-382l86 0c396,0 491,705 -28,750 -184,16 -391,-163 -391,-368zm-346 124c55,74 168,74 197,86 -38,57 -108,145 -79,252 43,162 216,170 329,96 64,-42 58,-68 73,19 15,82 70,181 159,188 0,301 0,601 0,901l0 889 86 0 0 -1790c55,-1 41,0 73,-26 32,-27 29,-25 52,-59 27,-42 48,-88 48,-162 40,11 205,159 340,33 40,-37 66,-109 52,-190 -12,-72 -54,-107 -84,-163 155,0 271,-91 270,-210 -2,-115 -114,-210 -270,-210 178,-265 52,-418 -146,-394 -89,11 -107,49 -162,86 0,-256 -242,-356 -366,-193 -42,54 -49,106 -66,180 -48,-25 -98,-68 -161,-74 -218,-21 -316,144 -148,395 -253,0 -339,251 -197,346z"/>
   <path class="fil0" d="M3718 6442c0,-76 52,-188 108,-250 180,-196 645,-137 645,275 0,330 -411,493 -645,251 -58,-60 -108,-163 -108,-276zm173 -505c-118,-80 -115,-87 -234,-87 -138,0 -216,144 -141,301 27,55 40,54 67,94 -284,0 -346,255 -188,373 40,29 132,64 175,47 -10,44 -169,227 -16,361 136,119 306,-32 337,-41 0,117 59,239 161,247l0 1790 86 0 0 -1753c0,-36 -1,-16 34,-40 82,-54 139,-97 139,-244 37,10 123,95 228,81 205,-28 187,-233 136,-321 -25,-42 -30,-23 -43,-80 210,0 356,-204 176,-362 -50,-44 -98,-58 -189,-58 58,-87 145,-233 43,-339 -61,-63 -88,-56 -166,-56 -93,0 -131,50 -185,87 0,-72 -20,-142 -53,-183 -152,-189 -367,-57 -367,183z"/>
   <path class="fil0" d="M7137 7171l0 0zm-198 -1086l99 0c173,0 347,206 328,390 -48,489 -717,456 -753,11 -12,-151 71,-289 186,-356 38,-22 86,-45 140,-45zm-654 234l0 0zm0 0c-139,37 -121,306 114,343 121,19 62,10 18,84 -133,223 101,410 293,282 40,-27 25,-31 69,-43 0,66 17,125 47,163 41,54 68,66 126,97l0 1777 86 0 0 -1790c48,-4 78,-31 99,-61 54,-63 61,-94 61,-186 75,18 63,57 172,77 168,30 300,-118 195,-320 -25,-46 -34,-32 -46,-77 87,0 126,-17 181,-54 147,-101 84,-366 -181,-366 12,-44 10,-13 39,-72 92,-186 24,-343 -187,-323 -82,8 -104,58 -173,74 0,-43 -1,-69 -11,-99 -82,-249 -408,-199 -408,112 -45,-30 -100,-78 -162,-86 -187,-23 -260,94 -233,233 14,73 52,110 86,161 -55,0 -63,2 -107,16 -50,16 -66,13 -78,58z"/>
   <path class="fil0" d="M9987 8725c22,-31 16,-53 60,-113 46,-63 36,-42 84,-89l584 -452c-14,172 -221,477 -400,612l-159 100c-12,6 -14,6 -26,12l-24 12c-2,1 -5,3 -8,5 383,0 761,-148 896,-474 80,-194 92,-244 92,-464 0,-102 -29,-228 -62,-296 -190,44 -657,330 -843,515 -172,172 -194,360 -194,632z"/>
   <path class="fil0" d="M2892 7874c0,306 86,546 280,719 168,148 483,219 707,219 -3,-2 -7,-7 -8,-5l-293 -200c-19,-19 -23,-26 -43,-44 -102,-96 -263,-373 -273,-492 94,50 595,435 668,541l60 113c0,-380 -46,-526 -332,-754 -103,-83 -210,-143 -329,-213 -79,-47 -289,-160 -376,-180 -20,87 -61,129 -61,296z"/>
   <path class="fil0" d="M9654 8812c-44,-38 -236,-103 -383,-296 -45,-60 -95,-129 -131,-202 -68,-136 -75,-185 -103,-243 50,14 152,104 198,136l195 150c30,24 62,43 91,69 18,16 26,27 44,43 230,204 127,148 200,232 2,-104 26,-37 -3,-244 -7,-54 -43,-154 -67,-204 -37,-75 -70,-100 -115,-157 -34,-44 -99,-86 -145,-127 -67,-60 -245,-170 -328,-214l-178 -94c-61,-29 -137,-68 -200,-83 -6,63 -84,199 -47,490 21,160 81,277 165,403 89,135 168,179 321,246 116,52 323,95 486,95z"/>
   <path class="fil0" d="M11567 7874c0,288 32,373 168,596l80 94c2,2 4,4 6,6 2,2 4,4 6,6 146,142 439,236 715,236 -14,-12 5,0 -22,-16 -85,-53 -116,-55 -224,-146l-47 -39c-39,-35 -47,-55 -81,-92 -69,-78 -229,-343 -231,-448l229 166c2,2 5,4 7,6l64 47c90,67 308,242 369,322 13,18 20,33 30,56l20 42c1,2 4,6 5,8 0,1 2,5 4,7 0,-306 -45,-545 -298,-725 -21,-15 -22,-16 -42,-33 -121,-104 -280,-181 -420,-259 -66,-36 -223,-125 -289,-130 -5,66 -49,153 -49,296z"/>
   <path class="fil0" d="M12875 8725c34,-39 29,-65 61,-111 53,-78 371,-335 464,-400 45,-31 178,-133 215,-143 -81,170 -56,221 -237,442 -93,113 -195,198 -326,266l-54 33c253,0 490,-65 683,-206 135,-100 292,-377 292,-609 0,-384 -38,-283 -49,-419 -44,3 -230,94 -283,124 -181,100 -266,144 -426,265 -244,184 -340,338 -340,758z"/>
   <path class="fil0" d="M1423 8207l0 0zm272 -271l0 0zm0 0l-152 120c-34,32 -108,108 -120,151l-53 95c-60,138 -58,268 -58,423 2,-2 4,-9 5,-7 6,18 7,-14 8,-17l48 -87c50,-70 203,-198 271,-248l396 -295c-6,77 -60,180 -93,240 -45,81 -74,135 -132,202 -5,6 -10,12 -17,20l-17 20c-68,81 -145,140 -237,195 -22,14 -29,17 -55,31 -4,2 -21,10 -25,12 -24,15 -12,7 -28,21 195,0 407,-54 562,-129 83,-39 183,-122 234,-197l104 -180c160,-354 34,-620 25,-728 -71,6 -273,123 -345,160l-313 193c-2,1 -6,3 -8,5z"/>
   <path class="fil0" d="M1090 8553l0 0zm0 0c34,-75 -69,-319 -109,-373 -74,-99 -162,-174 -261,-244 -48,-34 -99,-66 -148,-99 -76,-51 -442,-253 -519,-259 -3,46 -16,62 -27,108 -6,24 -17,88 -20,116 -26,249 28,478 171,677 42,59 83,97 141,143 157,124 456,190 661,190 -13,-12 4,0 -21,-16 -12,-7 -8,-5 -24,-13 -22,-12 -36,-16 -58,-29l-144 -103c-14,-12 -3,-2 -19,-17 -3,-3 -10,-10 -13,-12l-95 -103c-81,-96 -228,-326 -231,-448l103 71c144,106 533,376 595,527 6,13 5,14 11,26 15,30 5,13 19,30 0,-29 1,-58 1,-87l-13 -85z"/>
   <path class="fil0" d="M7112 8713c16,-67 45,-104 92,-155l41 -45c83,-79 377,-296 479,-373 40,-31 60,-45 104,-69 -70,301 -303,585 -585,724l-32 17c266,0 565,-94 706,-219 255,-227 361,-720 219,-1015 -80,18 -296,132 -368,175 -59,36 -110,63 -171,100 -150,91 -361,257 -427,412 -67,160 -63,169 -72,337 -2,43 -6,27 -3,57 0,1 5,25 6,27 9,31 2,12 11,27z"/>
   <path class="fil0" d="M4212 8701l29 -45c52,-91 131,-157 209,-223 56,-48 429,-345 490,-362 -45,196 -191,410 -332,545l-18 19c-103,103 -237,151 -267,177 171,0 350,-41 478,-90 149,-57 236,-127 326,-242 74,-93 143,-252 166,-401 32,-208 -3,-322 -44,-501 -208,48 -827,408 -962,667 -51,98 -108,316 -75,456z"/>
   <path class="fil0" d="M6261 7788l0 0zm0 0c-13,-11 -24,-21 -42,-33l-378 -177c-24,51 -43,156 -55,229 -16,94 -5,181 6,264 18,128 23,95 39,148 1,1 2,5 2,7 106,410 522,586 933,586 -2,-2 -6,-7 -7,-5l-40 -22c-274,-141 -501,-422 -570,-714 140,94 627,430 699,586 6,14 4,12 10,26 15,30 3,11 20,30 0,-219 -8,-429 -170,-596 -144,-148 -259,-230 -447,-329z"/>
   <path class="fil0" d="M12505 6442c0,155 108,274 260,276 359,7 346,-522 23,-522l-61 0c-104,0 -222,139 -222,246z"/>
   <path class="fil0" d="M6729 6430c0,430 519,317 519,74 0,-94 5,-153 -65,-231 -136,-150 -454,-77 -454,157z"/>
   <path class="fil0" d="M942 6455c0,347 531,351 531,0 0,-141 -131,-259 -223,-259l-61 0c-133,0 -247,124 -247,259z"/>
   <path class="fil0" d="M4360 6467c0,-93 -29,-162 -94,-215 -138,-111 -354,-60 -416,113 -77,216 132,417 349,336 78,-30 161,-125 161,-234z"/>
   <path class="fil0" d="M9617 6442c0,104 46,192 129,241 175,103 417,-39 397,-236 -37,-374 -526,-297 -526,-5z"/>
   <path class="fil0" d="M4780 5406c0,70 132,142 257,-52 73,-113 54,-98 101,-195 -119,10 -358,124 -358,247z"/>
   <path class="fil0" d="M5569 4394c0,121 201,149 408,-160 -112,0 -408,23 -408,160z"/>
   <path class="fil0" d="M5064 5961c0,50 49,87 95,81 51,-5 75,-48 97,-86 42,-69 67,-196 67,-303 -48,11 -130,82 -164,120 -36,40 -95,120 -95,188z"/>
   <path class="fil0" d="M4064 5381c82,0 152,-52 198,-110 42,-55 95,-133 111,-198 -106,24 -323,84 -361,195 -13,39 18,113 52,113z"/>
   <path class="fil0" d="M5471 4999c0,58 83,139 213,3 50,-52 114,-172 132,-250 -112,9 -345,138 -345,247z"/>
   <path class="fil0" d="M6199 4888c135,0 244,-240 247,-346 -114,27 -290,144 -315,242 -13,48 28,104 68,104z"/>
   <path class="fil0" d="M4854 4838c0,187 253,83 395,-185 -82,19 -157,23 -233,51 -49,17 -162,73 -162,134z"/>
   <path class="fil0" d="M5755 5431c0,125 246,170 246,-321 -83,55 -246,190 -246,321z"/>
   <polygon class="fil0" points="10481,6072 10481,6085 "/>
  </g>
 </g>
</svg>
