<?xml version="1.0" encoding="UTF-8"?>
<!DOCTYPE svg PUBLIC "-//W3C//DTD SVG 1.1//EN" "http://www.w3.org/Graphics/SVG/1.1/DTD/svg11.dtd">
<!-- Creator: CorelDRAW X8 -->
<svg xmlns="http://www.w3.org/2000/svg" xml:space="preserve" width="361.645mm" height="132.791mm" version="1.1" style="shape-rendering:geometricPrecision; text-rendering:geometricPrecision; image-rendering:optimizeQuality; fill-rule:evenodd; clip-rule:evenodd"
viewBox="0 0 36165 13279"
 xmlns:xlink="http://www.w3.org/1999/xlink">
 <defs>
  <style type="text/css">
   <![CDATA[
    .fil0 {fill:#C29216}
   ]]>
  </style>
 </defs>
 <g id="Layer_x0020_1">
  <metadata id="CorelCorpID_0Corel-Layer"/>
  <g id="_1715600691648">
  </g>
  <g id="_1715600692416">
  </g>
  <g id="_1715600691456">
  </g>
  <g id="_1715600692096">
  </g>
  <g id="_1715600690112">
  </g>
  <g id="_1715600690944">
  </g>
  <g id="_1715600690432">
  </g>
  <g id="_1715600690624">
  </g>
  <g id="_1715600689856">
  </g>
  <g id="_1715600689280">
  </g>
  <g id="_1715600688800">
  </g>
  <g id="_1715600685760">
  </g>
  <g id="_1715600685824">
  </g>
  <g id="_1715600686752">
  </g>
  <g id="_1715600686848">
  </g>
  <g id="_1715600678624">
   <path class="fil0" d="M1200 8123c0,795 36,1080 683,1648l1083 824c-1065,0 -2966,-273 -2966,1342 0,801 667,1272 1483,1272l5086 0c1481,0 1897,-1571 930,-2344 -213,-170 -380,-281 -599,-460l-1885 -1505c220,-330 393,-596 645,-909 235,-294 467,-656 767,-857l-890 -2077c-636,-1580 1354,-2298 1976,-987 511,1077 1190,3276 2001,4003 372,333 2219,422 2877,515 218,30 602,95 754,100 932,31 1236,-1232 488,-1625 -340,-179 -2725,-423 -3109,-423 -142,-270 -234,-335 -414,-575 -79,-107 -129,-176 -209,-285 -253,-343 -203,-239 -563,-426 -345,-180 -581,-404 -842,-712 -968,-1139 -90,-1585 -1077,-1960 -1662,-633 -2806,655 -3564,1244 -678,526 -1399,1507 -1849,2248 -214,353 -806,1489 -806,1949z"/>
   <path class="fil0" d="M25782 5863c0,629 215,1037 776,1412l111 -1655c314,-1197 2150,-1050 2150,243 0,1101 -129,1634 -141,2189l1645 544c230,98 296,175 544,233 -59,220 -128,259 -311,395 -465,348 -659,680 -1101,1018 -2294,1750 -787,2967 282,2967l4945 0c942,0 1434,-585 1483,-1199l0 -204c-41,-515 -392,-1008 -1049,-1151 -522,-113 -1605,-60 -2271,-60 2,-2 3387,-2846 919,-4592 -1723,-1220 -3425,-2048 -5722,-2048 -1067,0 -2260,981 -2260,1908z"/>
   <path class="fil0" d="M21473 2543c0,2311 2686,3462 4364,1892 1598,-1495 595,-4435 -1751,-4435 -1437,0 -2613,1128 -2613,2543z"/>
   <path class="fil0" d="M8123 2825c0,1501 1202,2614 2260,2614l494 0c2353,0 3420,-3461 1059,-4803 -932,-529 -2440,-330 -3120,481 -335,402 -693,995 -693,1708z"/>
   <path class="fil0" d="M5650 4379c0,668 1481,3785 1835,4593 318,725 626,1440 930,2178 306,740 591,1847 1332,1847 525,0 974,-501 883,-1020 -43,-250 -176,-476 -277,-716l-2129 -4934c-212,-505 -387,-947 -619,-1430 -224,-465 -301,-1011 -783,-1198 -521,-202 -1172,128 -1172,680z"/>
   <path class="fil0" d="M24934 12220c0,566 478,918 848,918 626,0 964,-746 1223,-1178 1067,-1784 1602,-3823 1602,-6097 0,-873 -1791,-1656 -1766,636 34,3000 -1907,5295 -1907,5721z"/>
   <path class="fil0" d="M14197 9677c0,899 -131,1413 212,1413l5934 0 0 -1625 -5934 0c-163,0 -212,49 -212,212z"/>
   <polygon class="fil0" points="14197,6710 20343,6710 20343,5156 14197,5156 "/>
   <path class="fil0" d="M14197 7487c0,1758 -363,1413 1625,1413l0 -1625c-976,0 -1625,-147 -1625,212z"/>
   <polygon class="fil0" points="16458,8900 18082,8900 18082,7275 16458,7275 "/>
   <polygon class="fil0" points="22532,13279 24157,13279 24157,11655 22532,11655 "/>
   <path class="fil0" d="M18718 13209l1625 0 0 -1413c0,-163 -50,-212 -212,-212l-1413 0 0 1625z"/>
   <path class="fil0" d="M16458 11796l0 1413 1624 0 0 -1625 -1412 0c-163,0 -212,49 -212,212z"/>
   <path class="fil0" d="M14197 11796l0 1413 1625 0 0 -1625 -1413 0c-163,0 -212,49 -212,212z"/>
  </g>
 </g>
</svg>
