<?xml version="1.0" encoding="UTF-8"?>
<!DOCTYPE svg PUBLIC "-//W3C//DTD SVG 1.1//EN" "http://www.w3.org/Graphics/SVG/1.1/DTD/svg11.dtd">
<!-- Creator: CorelDRAW X8 -->
<svg xmlns="http://www.w3.org/2000/svg" xml:space="preserve" width="360.477mm" height="281.584mm" version="1.1" style="shape-rendering:geometricPrecision; text-rendering:geometricPrecision; image-rendering:optimizeQuality; fill-rule:evenodd; clip-rule:evenodd"
viewBox="0 0 36048 28158"
 xmlns:xlink="http://www.w3.org/1999/xlink">
 <defs>
  <style type="text/css">
   <![CDATA[
    .fil0 {fill:#C29216}
   ]]>
  </style>
 </defs>
 <g id="Layer_x0020_1">
  <metadata id="CorelCorpID_0Corel-Layer"/>
  <g id="_1715597717888">
   <circle class="fil0" cx="29120" cy="2724" r="2724"/>
   <path class="fil0" d="M9028 26599c-104,-467 -78,-915 283,-1314 1065,-748 2129,-1496 3194,-2244 443,-304 1028,-484 1677,-606 1179,7 2358,13 3537,20 295,54 282,229 88,476l-5221 4112c-398,290 -795,580 -1193,869 -329,255 -709,339 -1177,124 -370,-485 -817,-952 -1188,-1437z"/>
   <path class="fil0" d="M8856 20769c93,372 447,638 1070,796 3719,-5 7439,-9 11158,-13 573,-138 718,-441 608,-843 -931,-2515 -1862,-5030 -2793,-7544 -223,-608 38,-1141 569,-1632l5153 -2890c171,-124 361,-187 603,-72 375,288 572,684 618,1172 362,1260 723,2521 1084,3781 188,540 574,822 1147,861 2185,-449 4369,-897 6553,-1346 794,-137 1321,-503 1420,-1234 28,-556 -271,-843 -824,-919l-4983 726c-688,109 -1206,-175 -1558,-846 -396,-1390 -793,-2780 -1189,-4171 -164,-771 -604,-1372 -1216,-1867 -2329,-1160 -4658,-2321 -6987,-3481 -716,-227 -1358,-237 -1957,-126 -1882,466 -3764,932 -5646,1398 -720,385 -1279,843 -996,1680 146,277 328,459 576,471 1172,58 3573,-731 5428,-1169 335,-64 681,-70 1036,-25 683,27 1658,569 2749,1318 517,339 628,711 112,1137l-5451 3370 -1201 1227 666 2541 2039 4394 -559 1050c-2135,9 -4270,18 -6405,27 -531,39 -872,336 -960,979l136 1250z"/>
   <rect class="fil0" y="6837" width="15421" height="936" rx="468" ry="468"/>
   <rect class="fil0" x="2016" y="8737" width="11388" height="691" rx="346" ry="346"/>
   <rect class="fil0" x="3110" y="10474" width="9201" height="558" rx="279" ry="279"/>
  </g>
 </g>
</svg>
