<?xml version="1.0" encoding="UTF-8"?>
<!DOCTYPE svg PUBLIC "-//W3C//DTD SVG 1.1//EN" "http://www.w3.org/Graphics/SVG/1.1/DTD/svg11.dtd">
<!-- Creator: CorelDRAW X8 -->
<svg xmlns="http://www.w3.org/2000/svg" xml:space="preserve" width="202.447mm" height="155.97mm" version="1.1" style="shape-rendering:geometricPrecision; text-rendering:geometricPrecision; image-rendering:optimizeQuality; fill-rule:evenodd; clip-rule:evenodd"
viewBox="0 0 20245 15597"
 xmlns:xlink="http://www.w3.org/1999/xlink">
 <defs>
  <style type="text/css">
   <![CDATA[
    .fil0 {fill:#C29216}
   ]]>
  </style>
 </defs>
 <g id="Layer_x0020_1">
  <metadata id="CorelCorpID_0Corel-Layer"/>
  <g id="_1715600733760">
   <path class="fil0" d="M17945 14063c72,-479 -55,-525 -509,-586 -4097,-551 -7921,-707 -12069,-235 -3545,402 -2969,274 -2758,1618 62,400 35,749 472,737l3101 -396c2940,-278 5954,-270 8895,30 712,73 1383,157 2088,261 438,65 561,18 628,-427 51,-343 101,-665 152,-1002z"/>
   <path class="fil0" d="M2432 13025c304,59 1811,-263 2315,-355 1011,-185 904,267 151,-3847 -119,-652 -498,-3247 -709,-3576 -420,-82 -2022,283 -2578,379 -837,145 -590,285 -238,2259l701 3920c75,416 98,1015 358,1220z"/>
   <path class="fil0" d="M15876 11994c-598,92 -361,-386 -205,-1337 115,-702 722,-4686 886,-4788 610,-377 215,1093 175,1337 -92,549 -178,1081 -272,1627 -96,562 -409,2871 -584,3161zm-1010 398c160,211 1380,331 1644,377 390,67 1361,398 1537,-5 116,-266 727,-4253 874,-5117 394,-2320 675,-1952 -1127,-2254 -2105,-353 -1744,-621 -2104,1533 -148,888 -953,5191 -824,5466z"/>
   <path class="fil0" d="M22 5276c410,179 1851,-193 2412,-295 412,-76 2255,-317 2415,-528 269,-353 -312,-645 -459,-781 -156,-144 -194,-216 -360,-346l-785 -686c-251,-235 -1048,-853 -1115,-1143 269,-381 1715,-476 1281,-1035 -232,-191 -1257,-14 -1475,-199 -191,-162 -30,-254 -433,-176 -182,347 62,995 130,1449 45,304 -71,388 -208,641l-929 1791c-214,395 -590,841 -474,1308z"/>
   <path class="fil0" d="M13880 12566c62,-204 181,-824 191,-1069 22,-476 -341,-418 -765,-474 -1668,-223 -5727,-319 -6927,182 -100,363 18,1203 240,1433 312,62 1434,-134 1849,-171 1123,-102 2586,-103 3706,0 524,49 1286,237 1706,99z"/>
   <path class="fil0" d="M11086 647c-460,328 -370,1816 765,2211l-230 2597c-643,216 -1890,267 -1269,1044 363,44 1190,-244 1570,-354 609,-175 312,-490 541,-1359 371,-30 299,75 489,387 127,208 251,410 343,621 -500,803 -983,888 -718,1488 611,189 603,-150 1337,-1048 641,-783 -408,-870 -345,-1800 35,-519 82,-1056 127,-1577 1696,-619 937,-2997 433,-2227 -128,196 172,710 -83,1224 -268,542 -1253,804 -2004,476 -1204,-524 -113,-1662 -956,-1683z"/>
   <path class="fil0" d="M7088 6083c49,521 263,1651 30,2059 -570,995 -638,798 -94,1491 276,353 807,1248 1194,805 358,-410 -515,-972 -730,-1434 76,-189 230,-409 335,-594 129,-230 177,-492 486,-392 309,635 -215,1125 694,1375 284,78 536,149 805,229 430,127 428,201 783,-55 88,-520 -108,-526 -520,-640 -313,-86 -589,-175 -896,-248l-250 -2557c51,-38 50,-38 116,-79 264,-165 544,-301 746,-726 466,-981 -91,-1856 -405,-1315 -162,281 336,1276 -864,1619 -772,220 -1632,-98 -1838,-704 -144,-419 127,-955 -66,-1130 -526,-476 -801,955 -284,1699 208,299 422,393 758,597z"/>
   <path class="fil0" d="M18326 2508c33,208 66,177 -66,344 -233,294 -437,399 -683,627 -136,126 -766,938 -1006,577 -200,-302 614,-807 747,-946 381,-398 665,-762 1008,-602zm279 -1001l1479 -141c185,-493 -174,-506 -999,-857 -474,-202 -197,-55 -345,-359 -102,-208 -317,-185 -428,-20 -73,108 -98,440 -122,582 -211,1208 -36,801 -694,1380 -139,122 -207,235 -348,357l-1801 1690c-83,234 40,370 222,428 503,162 1751,296 2329,394 397,66 771,127 1167,196 1014,175 1576,386 853,-910 -184,-330 -312,-589 -498,-917 -154,-272 -990,-1592 -815,-1823z"/>
   <path class="fil0" d="M7816 3758c-1154,269 -665,1933 416,1636 390,-106 717,-525 585,-1032 -98,-379 -508,-719 -1001,-604z"/>
   <path class="fil0" d="M12571 562c-1161,336 -572,1961 489,1607 968,-324 600,-1922 -489,-1607z"/>
  </g>
 </g>
</svg>
