<?xml version="1.0" encoding="UTF-8"?>
<!DOCTYPE svg PUBLIC "-//W3C//DTD SVG 1.1//EN" "http://www.w3.org/Graphics/SVG/1.1/DTD/svg11.dtd">
<!-- Creator: CorelDRAW X8 -->
<svg xmlns="http://www.w3.org/2000/svg" xml:space="preserve" width="117.145mm" height="107.01mm" version="1.1" style="shape-rendering:geometricPrecision; text-rendering:geometricPrecision; image-rendering:optimizeQuality; fill-rule:evenodd; clip-rule:evenodd"
viewBox="0 0 11714 10701"
 xmlns:xlink="http://www.w3.org/1999/xlink">
 <defs>
  <style type="text/css">
   <![CDATA[
    .fil0 {fill:#C29216}
   ]]>
  </style>
 </defs>
 <g id="Layer_x0020_1">
  <metadata id="CorelCorpID_0Corel-Layer"/>
  <g id="_2617680808496">
   <path class="fil0" d="M229 0l11293 0 0 6185 -11293 0 0 -6185zm6017 4229l-324 0 0 -1224c-118,111 -257,193 -418,246l0 -295c85,-27 177,-80 276,-157 99,-78 166,-168 204,-270l262 0 0 1700zm-341 -3072c1108,0 2005,893 2005,1995 0,1102 -897,1996 -2005,1996 -1107,0 -2005,-894 -2005,-1996 0,-1102 898,-1995 2005,-1995z"/>
   <path class="fil0" d="M10 9590l-10 1111 2721 0 -11 -1142c2,-263 -104,-446 -436,-457l-1869 -31c-257,31 -437,197 -395,519z"/>
   <path class="fil0" d="M3070 9590l-10 1111 2720 0 -10 -1142c1,-263 -104,-446 -436,-457l-1869 -31c-257,31 -438,197 -395,519z"/>
   <path class="fil0" d="M5999 9590l-10 1111 2721 0 -10 -1142c1,-263 -104,-446 -437,-457l-1869 -31c-256,31 -437,197 -395,519z"/>
   <path class="fil0" d="M9004 9590l-10 1111 2721 0 -11 -1142c1,-263 -104,-446 -436,-457l-1869 -31c-257,31 -438,197 -395,519z"/>
   <path class="fil0" d="M612 8381l-18 570 1648 -4 -15 -566c-303,-746 -1367,-651 -1615,0z"/>
   <path class="fil0" d="M3700 8381l-19 570 1649 -4 -15 -566c-303,-746 -1367,-651 -1615,0z"/>
   <path class="fil0" d="M6577 8381l-19 570 1649 -4 -15 -566c-303,-746 -1367,-651 -1615,0z"/>
   <path class="fil0" d="M9653 8381l-19 570 1648 -4 -15 -566c-302,-746 -1366,-651 -1614,0z"/>
   <path class="fil0" d="M3869 7905c-349,737 -690,940 -902,942 -461,-177 -783,-472 -847,-983 -58,-639 319,-811 863,-806 659,2 925,307 886,847z"/>
   <path class="fil0" d="M9836 7905c-349,737 -690,940 -903,942 -460,-177 -782,-472 -846,-983 -58,-639 319,-811 863,-806 659,2 925,307 886,847z"/>
  </g>
 </g>
</svg>
