<?xml version="1.0" encoding="UTF-8"?>
<!DOCTYPE svg PUBLIC "-//W3C//DTD SVG 1.1//EN" "http://www.w3.org/Graphics/SVG/1.1/DTD/svg11.dtd">
<!-- Creator: CorelDRAW X8 -->
<svg xmlns="http://www.w3.org/2000/svg" xml:space="preserve" width="106.274mm" height="57.9628mm" version="1.1" style="shape-rendering:geometricPrecision; text-rendering:geometricPrecision; image-rendering:optimizeQuality; fill-rule:evenodd; clip-rule:evenodd"
viewBox="0 0 10627 5796"
 xmlns:xlink="http://www.w3.org/1999/xlink">
 <defs>
  <style type="text/css">
   <![CDATA[
    .fil0 {fill:#C29216}
   ]]>
  </style>
 </defs>
 <g id="Layer_x0020_1">
  <metadata id="CorelCorpID_0Corel-Layer"/>
  <g id="_1715535113360">
   <path class="fil0" d="M8641 3435l0 0zm-966 -107c611,408 213,262 1248,469l1489 282 0 1073c-824,0 -1357,-70 -1895,-466 -385,-283 -769,-788 -842,-1358zm-7299 1824l-161 0 0 -1073 2160 -416c373,-93 338,-175 577,-335 -45,544 -454,1036 -845,1355 -417,340 -994,469 -1731,469zm1610 -1717l0 0zm6870 0l0 0zm-7085 0l0 0zm-53 -215l0 0zm6065 -268l0 -108c0,-265 178,-462 429,-483l0 1074c-237,-55 -429,-194 -429,-483zm-2362 537l0 -1181c240,56 483,246 483,536l0 108c0,290 -243,481 -483,537zm-698 -537l0 -108c0,-290 243,-480 483,-536l0 1181c-240,-56 -483,-247 -483,-537zm-2308 483l0 -1074c251,21 430,218 430,483l0 108c0,289 -192,428 -430,483zm-644 -1074l0 0zm6870 0l0 0zm-6655 0l0 0zm6870 1074c160,-60 84,115 107,-161l-53 -54c-110,40 -55,15 -137,78 -107,83 -59,37 -132,137l-212 60 -2 -1187 214 53 59 105 102 -51 54 -54 -115 -154c220,-7 1545,-268 1671,-329l0 2040c-111,-54 -1425,-318 -1610,-322 38,-142 -4,-44 54,-161zm-7085 -1074c-160,60 -83,-115 -107,161l54 54c118,-43 45,-17 129,-86 25,-20 128,-119 139,-129l213 -60 2 1188 -215 -54c-51,-70 -26,-48 -102,-113 -11,-9 -49,-37 -61,-46 -47,-31 -17,-24 -105,-56 0,-255 1,-102 -54,-161l-105 62c15,199 -29,69 59,199 119,177 -22,52 153,115 44,78 26,57 54,161 -185,4 -1498,268 -1610,322l0 -2040c127,61 1451,322 1664,322l-108 161zm5904 108c88,-1055 1178,-1825 2469,-1825l268 0 0 1073c-226,5 -490,82 -729,130 -264,53 -465,93 -715,143 -220,44 -514,94 -715,144 -374,92 -339,175 -578,335zm-7460 -1825c1120,0 1826,164 2438,1050 129,188 277,509 299,775 -610,-409 -212,-263 -1248,-470l-1489 -282 0 -1073zm9500 4669l697 0 0 269 -4991 0 0 -1771c0,-236 150,-65 446,-359 335,-332 335,-776 0,-1108 -112,-111 -78,-86 -219,-156 -136,-68 -227,-17 -227,-202l0 -1771 4991 0 0 268c-899,0 -1653,25 -2296,709 -157,168 -376,475 -473,708 -776,1847 711,3413 2072,3413zm-9500 -5098l4991 0 0 1771c0,164 -66,124 -189,186 -557,282 -679,862 -257,1280 551,546 446,-539 446,2130l-4991 0 0 -269c657,0 1039,55 1629,-249 2351,-1208 1372,-4581 -985,-4581l-644 0 0 -268zm-215 5581l10627 0 0 -5796 -10627 0 0 5796z"/>
   <path class="fil0" d="M8910 2576c0,134 28,264 28,322 0,58 -28,188 -28,322l53 54 108 0 0 -161 -116 -30 169 -24 0 -322 -161 0 105 -62 3 -153 -108 0 -53 54z"/>
   <path class="fil0" d="M1664 3059c43,-104 43,-218 0,-322l-161 0 0 322 161 0z"/>
   <polygon class="fil0" points="8802,2415 8802,2576 8910,2576 8963,2522 8963,2361 8856,2361 "/>
   <path class="fil0" d="M1664 2737c55,-59 54,94 54,-161l-54 -54 -107 0 0 161 107 54z"/>
  </g>
 </g>
</svg>
