<?xml version="1.0" encoding="UTF-8"?>
<!DOCTYPE svg PUBLIC "-//W3C//DTD SVG 1.1//EN" "http://www.w3.org/Graphics/SVG/1.1/DTD/svg11.dtd">
<!-- Creator: CorelDRAW X8 -->
<svg xmlns="http://www.w3.org/2000/svg" xml:space="preserve" width="136.373mm" height="81.3562mm" version="1.1" style="shape-rendering:geometricPrecision; text-rendering:geometricPrecision; image-rendering:optimizeQuality; fill-rule:evenodd; clip-rule:evenodd"
viewBox="0 0 13637 8136"
 xmlns:xlink="http://www.w3.org/1999/xlink">
 <defs>
  <style type="text/css">
   <![CDATA[
    .fil0 {fill:#C29216}
   ]]>
  </style>
 </defs>
 <g id="Layer_x0020_1">
  <metadata id="CorelCorpID_0Corel-Layer"/>
  <g id="_2581406556016">
   <g>
    <path class="fil0" d="M3499 1784c0,-550 672,-876 1109,-475 410,377 154,1127 -457,1127 -354,0 -652,-320 -652,-652zm-134 -959l19 172c-479,-111 -674,354 -481,634 56,82 109,85 155,153 -373,100 -286,787 192,787 70,0 45,-17 134,-19 -116,497 403,654 647,455 58,-47 94,-115 140,-148 85,367 786,318 786,-173 0,-66 -14,-74 -19,-134 89,2 65,19 135,19 385,0 577,-529 229,-767l-57 -39c259,-69 348,-506 97,-692 -79,-59 -262,-144 -404,-76 2,-88 19,-64 19,-134 0,-342 -391,-532 -645,-357 -73,50 -108,126 -161,165 -224,-424 -786,-202 -786,154z"/>
    <path class="fil0" d="M7759 4202l0 0zm-1573 0l0 0zm825 -134c-206,0 -349,-52 -476,-177 -238,-234 -263,-616 -76,-854 500,-638 1411,-44 1128,628 -91,215 -308,403 -576,403zm-825 134c0,212 -17,401 256,511 146,59 334,28 440,-83 58,-61 39,-83 110,-102 41,157 314,278 530,185 147,-63 218,-180 244,-333 15,-93 -7,-66 -7,-178 176,0 379,44 506,-243 92,-209 -12,-481 -199,-525 48,-65 330,-174 215,-541 -61,-195 -284,-305 -541,-245 146,-305 -245,-767 -665,-454 -55,41 -67,56 -83,127 -58,-39 -46,-50 -91,-101 -110,-122 -297,-168 -459,-103 -149,59 -350,295 -237,531 -649,-151 -680,659 -346,748 -19,73 -28,44 -91,100 -180,161 -181,526 92,667 44,23 84,34 148,46 104,19 71,-5 178,-7z"/>
    <path class="fil0" d="M2117 4202l0 0zm-1573 0l0 0zm134 -768c0,-197 84,-365 186,-466 44,-43 131,-109 192,-135 505,-217 927,153 927,601 0,349 -283,634 -672,634 -337,0 -633,-297 -633,-634zm-134 -786l0 0zm0 0c-184,-16 -386,-36 -506,243 -93,216 31,479 199,524 -39,52 -56,42 -107,85 -126,110 -159,319 -105,454 35,88 105,169 189,214 145,77 181,37 330,34 0,212 -17,401 256,511 144,58 331,30 440,-83 37,-38 52,-74 91,-102 28,21 214,329 549,185 282,-121 237,-368 237,-511 209,0 369,37 507,-242 105,-212 -31,-486 -200,-526 38,-51 341,-208 210,-555 -28,-75 -122,-168 -196,-207 -112,-58 -208,-55 -340,-24 170,-354 -349,-783 -677,-428 -79,86 -39,83 -110,101 -58,-220 -512,-356 -714,-24 -69,114 -53,183 -53,351z"/>
    <path class="fil0" d="M4055 3166l0 4970 192 0 0 -4932c0,-54 -55,-69 -96,-96 -55,37 -25,39 -96,58z"/>
    <path class="fil0" d="M6397 882c349,0 444,595 -39,595 -146,0 -268,-160 -262,-305 6,-144 142,-290 301,-290zm-365 -57c-127,-61 -269,71 -269,191 0,99 75,113 96,192 -48,18 -62,37 -79,96 -15,51 -16,71 10,126 45,95 109,124 242,124 -29,124 26,249 211,249 87,0 100,-41 154,-77 70,48 58,77 172,77 161,0 192,-127 192,-249 107,0 204,5 248,-138 25,-82 9,-177 -75,-208 29,-108 77,-32 77,-211 0,-123 -151,-218 -250,-172 0,-182 -66,-293 -235,-256 -60,13 -90,27 -110,83 -62,-17 -184,-195 -342,-16 -46,52 -42,96 -42,189z"/>
    <path class="fil0" d="M1945 1477c-477,0 -389,-595 -39,-595 400,0 376,595 39,595zm-403 -652c-214,-103 -358,290 -154,345 -67,101 -96,48 -96,230 0,68 98,154 250,154 0,85 -11,131 43,187 153,161 323,-22 340,-34 15,54 -5,32 49,66 72,46 167,37 232,-16 75,-61 65,-120 65,-203 339,0 310,-309 173,-346 24,-92 134,-134 73,-263 -39,-82 -151,-166 -246,-120 25,-109 2,-200 -103,-245 -152,-64 -184,46 -281,72 -20,-56 24,-15 -53,-63 -90,-56 -183,-29 -250,47 -46,52 -42,96 -42,189z"/>
    <path class="fil0" d="M3672 1784c0,612 940,600 940,38 0,-178 -5,-250 -148,-389 -286,-279 -792,-62 -792,351z"/>
    <path class="fil0" d="M6972 3895c334,0 644,-425 368,-771 -294,-370 -888,-99 -840,322 17,155 65,226 150,310 48,48 68,66 136,95 39,17 141,44 186,44z"/>
    <path class="fil0" d="M1331 3895c222,0 443,-183 472,-449 28,-249 -169,-491 -511,-491 -449,0 -619,672 -161,890 43,21 147,50 200,50z"/>
    <path class="fil0" d="M1235 4854l0 3282 191 0 0 -3282c0,-62 -54,-74 -95,-96 -42,22 -96,34 -96,96z"/>
    <path class="fil0" d="M6896 4816c0,101 -12,146 -17,215 -7,84 17,104 17,207 0,98 -17,126 -19,193 -2,77 19,92 19,191 0,98 -17,126 -19,193 -2,76 19,91 19,191 0,98 -17,125 -19,193 -2,76 19,91 19,191 0,97 -17,125 -19,193 -2,76 19,91 19,190 0,98 -17,126 -19,193 -2,77 19,92 19,191 0,98 -17,126 -19,193 -2,77 19,92 19,191 0,101 -21,138 -19,210 2,68 19,111 19,212 0,97 -18,86 -20,173l192 0 0 -3282c0,-54 -44,-74 -76,-96 -68,19 -43,21 -96,58z"/>
    <path class="fil0" d="M4363 4221c0,129 19,134 19,230 62,15 119,39 192,39 222,0 401,-105 497,-232 129,-174 156,-325 98,-574 -73,-17 -121,-39 -212,-39 -303,0 -594,270 -594,576z"/>
    <path class="fil0" d="M3134 3684c-19,232 -77,400 165,641 207,206 396,179 622,126 4,-166 97,-384 -167,-638 -188,-182 -394,-182 -620,-129z"/>
    <path class="fil0" d="M313 5315c-51,220 -59,418 120,610 261,280 442,181 648,177 50,-215 73,-417 -119,-610 -243,-244 -373,-206 -649,-177z"/>
    <path class="fil0" d="M1542 5871c0,87 21,159 38,231 105,8 52,19 230,19 301,0 576,-279 576,-576 0,-87 -22,-159 -38,-230 -105,-9 -53,-19 -231,-19 -300,0 -575,279 -575,575z"/>
    <path class="fil0" d="M7183 5871c0,87 22,159 39,231 173,4 369,96 629,-158 210,-205 193,-393 138,-629 -104,-9 -52,-19 -230,-19 -300,0 -576,279 -576,575z"/>
    <path class="fil0" d="M5936 5468l0 96c0,290 267,557 557,557 263,0 268,-5 268,-269 0,-302 -287,-556 -518,-556 -201,0 -307,-27 -307,172z"/>
    <path class="fil0" d="M2578 249c0,506 595,393 595,57 0,-409 -595,-387 -595,-57z"/>
    <path class="fil0" d="M7510 1899c480,0 353,-595 38,-595 -273,0 -414,307 -246,496 56,62 95,99 208,99z"/>
    <path class="fil0" d="M486 1611c0,388 595,388 595,0 0,-387 -595,-414 -595,0z"/>
    <path class="fil0" d="M5149 287c0,430 595,374 595,19 0,-400 -595,-410 -595,-19z"/>
    <path class="fil0" d="M6186 1151c0,347 422,319 422,19 0,-267 -422,-266 -422,-19z"/>
    <path class="fil0" d="M1695 1170c0,327 422,274 422,38 0,-348 -422,-284 -422,-38z"/>
   </g>
   <path class="fil0" d="M8828 1784c0,-550 672,-876 1109,-475 410,377 154,1127 -457,1127 -354,0 -652,-320 -652,-652zm-134 -959l19 172c-480,-111 -674,354 -481,634 56,82 109,85 155,153 -373,100 -286,787 191,787 70,0 46,-17 135,-19 -116,497 403,654 647,455 58,-47 94,-115 140,-148 85,367 786,318 786,-173 0,-66 -14,-74 -19,-134 89,2 64,19 134,19 386,0 578,-529 230,-767l-57 -39c259,-69 348,-506 97,-692 -79,-59 -262,-144 -404,-76 2,-88 19,-64 19,-134 0,-342 -391,-532 -645,-357 -73,50 -108,126 -161,165 -224,-424 -786,-202 -786,154z"/>
   <path class="fil0" d="M13088 4202l0 0zm-1574 0l0 0zm826 -134c-206,0 -349,-52 -476,-177 -238,-234 -263,-616 -76,-854 500,-638 1410,-44 1127,628 -90,215 -307,403 -575,403zm-826 134c0,212 -16,401 257,511 146,59 333,28 440,-83 58,-61 39,-83 109,-102 42,157 315,278 531,185 147,-63 218,-180 244,-333 15,-93 -7,-66 -7,-178 176,0 379,44 506,-243 92,-209 -12,-481 -199,-525 48,-65 330,-174 215,-541 -61,-195 -284,-305 -541,-245 146,-305 -245,-767 -665,-454 -55,41 -67,56 -84,127 -58,-39 -45,-50 -90,-101 -110,-122 -297,-168 -459,-103 -149,59 -350,295 -237,531 -649,-151 -680,659 -346,748 -19,73 -28,44 -91,100 -180,161 -181,526 92,667 44,23 84,34 148,46 104,19 71,-5 177,-7z"/>
   <path class="fil0" d="M9384 3166l0 4970 192 0 0 -4932c0,-54 -55,-69 -96,-96 -55,37 -25,39 -96,58z"/>
   <path class="fil0" d="M11726 882c349,0 444,595 -39,595 -146,0 -268,-160 -262,-305 6,-144 141,-290 301,-290zm-365 -57c-127,-61 -269,71 -269,191 0,99 75,113 96,192 -48,18 -62,37 -79,96 -15,51 -16,71 10,126 45,95 109,124 242,124 -29,124 26,249 211,249 87,0 100,-41 154,-77 70,48 58,77 172,77 161,0 192,-127 192,-249 107,0 204,5 248,-138 25,-82 9,-177 -75,-208 29,-108 77,-32 77,-211 0,-123 -151,-218 -250,-172 0,-182 -66,-293 -235,-256 -60,13 -90,27 -110,83 -62,-17 -184,-195 -342,-16 -46,52 -42,96 -42,189z"/>
   <path class="fil0" d="M9001 1784c0,612 940,600 940,38 0,-178 -5,-250 -148,-389 -286,-279 -792,-62 -792,351z"/>
   <path class="fil0" d="M12301 3895c334,0 644,-425 368,-771 -294,-370 -888,-99 -841,322 18,155 66,226 151,310 48,48 68,66 136,95 38,17 140,44 186,44z"/>
   <path class="fil0" d="M12225 4816c0,101 -12,146 -18,215 -7,84 18,104 18,207 0,98 -17,126 -19,193 -2,77 19,92 19,191 0,98 -17,126 -19,193 -2,76 19,91 19,191 0,98 -17,125 -19,193 -2,76 19,91 19,191 0,97 -17,125 -19,193 -2,76 19,91 19,190 0,98 -17,126 -19,193 -2,77 19,92 19,191 0,98 -17,126 -19,193 -2,77 19,92 19,191 0,101 -21,138 -19,210 2,68 19,111 19,212 0,97 -18,86 -20,173l192 0 0 -3282c0,-54 -44,-74 -77,-96 -67,19 -42,21 -95,58z"/>
   <path class="fil0" d="M9691 4221c0,129 20,134 20,230 62,15 119,39 192,39 222,0 401,-105 496,-232 130,-174 156,-325 98,-574 -72,-17 -120,-39 -211,-39 -303,0 -595,270 -595,576z"/>
   <path class="fil0" d="M8463 3684c-19,232 -78,400 165,641 207,206 396,179 622,126 4,-166 97,-384 -167,-638 -188,-182 -394,-182 -620,-129z"/>
   <path class="fil0" d="M12512 5871c0,87 22,159 39,231 173,4 369,96 629,-158 210,-205 193,-393 138,-629 -104,-9 -52,-19 -230,-19 -300,0 -576,279 -576,575z"/>
   <path class="fil0" d="M11265 5468l0 96c0,290 267,557 557,557 263,0 268,-5 268,-269 0,-302 -287,-556 -518,-556 -202,0 -307,-27 -307,172z"/>
   <path class="fil0" d="M12839 1899c480,0 353,-595 38,-595 -273,0 -414,307 -246,496 55,62 95,99 208,99z"/>
   <path class="fil0" d="M10478 287c0,430 595,374 595,19 0,-400 -595,-410 -595,-19z"/>
   <path class="fil0" d="M11514 1151c0,347 423,319 423,19 0,-267 -423,-266 -423,-19z"/>
  </g>
 </g>
</svg>
