<?xml version="1.0" encoding="UTF-8"?>
<!DOCTYPE svg PUBLIC "-//W3C//DTD SVG 1.1//EN" "http://www.w3.org/Graphics/SVG/1.1/DTD/svg11.dtd">
<!-- Creator: CorelDRAW X8 -->
<svg xmlns="http://www.w3.org/2000/svg" xml:space="preserve" width="155.194mm" height="116.408mm" version="1.1" style="shape-rendering:geometricPrecision; text-rendering:geometricPrecision; image-rendering:optimizeQuality; fill-rule:evenodd; clip-rule:evenodd"
viewBox="0 0 15519 11641"
 xmlns:xlink="http://www.w3.org/1999/xlink">
 <defs>
  <style type="text/css">
   <![CDATA[
    .fil0 {fill:#C29216}
   ]]>
  </style>
 </defs>
 <g id="Layer_x0020_1">
  <metadata id="CorelCorpID_0Corel-Layer"/>
  <path class="fil0" d="M2377 7979c350,237 565,734 903,734 193,0 807,-648 917,-811 373,249 646,811 988,811 193,0 354,-231 467,-344 137,-137 261,-294 415,-397 50,216 259,532 347,746 61,148 125,224 194,371 36,75 50,127 84,198l290 557c73,131 113,255 180,384l386 742 -6667 0 1496 -2991zm6265 -4839c377,101 627,846 1093,846 274,0 656,-624 988,-846l3915 7830 -6349 0c-338,-638 -647,-1294 -976,-1951l-732 -1458c-101,-203 28,-322 121,-506l1457 -2916c112,-223 437,-803 483,-999zm-5362 4762l-573 -556 1511 -3049 1509 3033 -569 580c-112,-163 -284,-302 -423,-441 -505,-505 -526,-515 -1023,-17 -141,140 -328,295 -432,450zm5706 -5424c126,-232 222,-463 350,-690 86,-154 290,-531 328,-694 118,86 629,1198 741,1411l-697 678 -722 -705zm-2814 4189c-110,-81 -182,-294 -247,-423l-1340 -2681c-95,-195 -137,-318 -388,-318 -234,0 -293,197 -376,365 -92,185 -172,343 -259,517 -169,339 -331,662 -505,1011l-3057 6115c0,210 141,388 352,388l14815 0c181,0 353,-186 353,-353 0,-89 -2568,-5171 -2846,-5726l-2492 -4986c-120,-238 -200,-576 -518,-576 -247,0 -439,527 -540,729 -148,296 -276,551 -424,847l-1693 3386c-128,257 -798,1548 -835,1705z"/>
 </g>
</svg>
