<?xml version="1.0" encoding="UTF-8"?>
<!DOCTYPE svg PUBLIC "-//W3C//DTD SVG 1.1//EN" "http://www.w3.org/Graphics/SVG/1.1/DTD/svg11.dtd">
<!-- Creator: CorelDRAW X8 -->
<svg xmlns="http://www.w3.org/2000/svg" xml:space="preserve" width="125.044mm" height="125.679mm" version="1.1" style="shape-rendering:geometricPrecision; text-rendering:geometricPrecision; image-rendering:optimizeQuality; fill-rule:evenodd; clip-rule:evenodd"
viewBox="0 0 12504 12568"
 xmlns:xlink="http://www.w3.org/1999/xlink">
 <defs>
  <style type="text/css">
   <![CDATA[
    .fil0 {fill:#C29216}
   ]]>
  </style>
 </defs>
 <g id="Layer_x0020_1">
  <metadata id="CorelCorpID_0Corel-Layer"/>
  <g id="_1715597726624">
   <path class="fil0" d="M3833 2825c-481,-40 -1631,-1376 -2021,-1779 -265,-273 -384,-567 -805,-365 123,461 850,996 1194,1340 190,191 1371,1196 1011,1335 -477,184 -2042,-2456 -2692,-2187 -157,381 460,801 999,1339 204,205 1277,1123 1188,1353 -205,534 -2048,-2038 -2674,-2205 -233,486 821,1260 1534,1973 1734,1733 1120,1217 2266,950l5680 6012c282,338 650,660 970,979 185,183 321,298 476,498 239,307 248,501 669,501 238,0 877,-639 877,-877 0,-297 -2444,-2457 -2947,-2900l-4044 -3848c-387,-387 -613,-694 -1097,-950 665,-1256 140,-1273 -1144,-2557 -338,-338 -1198,-1335 -1584,-1438 -218,455 242,681 950,1389 484,484 1157,990 1194,1437z"/>
   <path class="fil0" d="M5684 4579c361,539 920,1001 1462,1364 432,-290 3910,-3885 4702,-4653 704,-681 606,-609 -708,-609 -2410,0 -4039,2949 -5456,3898z"/>
   <path class="fil0" d="M33 10912c125,536 542,843 974,1072 534,-283 4604,-4374 4872,-4774l-854 -900 -1860 1694c-301,240 -395,312 -672,594l-1216 1122c-430,427 -899,677 -1244,1192z"/>
  </g>
 </g>
</svg>
