<?xml version="1.0" encoding="UTF-8"?>
<!DOCTYPE svg PUBLIC "-//W3C//DTD SVG 1.1//EN" "http://www.w3.org/Graphics/SVG/1.1/DTD/svg11.dtd">
<!-- Creator: CorelDRAW X8 -->
<svg xmlns="http://www.w3.org/2000/svg" xml:space="preserve" width="100.457mm" height="102.921mm" version="1.1" style="shape-rendering:geometricPrecision; text-rendering:geometricPrecision; image-rendering:optimizeQuality; fill-rule:evenodd; clip-rule:evenodd"
viewBox="0 0 10046 10292"
 xmlns:xlink="http://www.w3.org/1999/xlink">
 <defs>
  <style type="text/css">
   <![CDATA[
    .fil0 {fill:#C29216}
   ]]>
  </style>
 </defs>
 <g id="Layer_x0020_1">
  <metadata id="CorelCorpID_0Corel-Layer"/>
  <g id="_2581395953856">
   <path class="fil0" d="M1150 5007c239,64 839,1432 40,1432 -253,0 -450,-33 -658,-189 -250,-188 -127,-234 13,-416 138,-179 411,-377 538,-712 23,-59 23,-83 67,-115zm-1150 627l0 -46c10,-121 97,-238 242,-238 243,0 216,221 303,303 72,-20 110,-74 156,-127 78,-90 52,-108 25,-156 -70,17 -68,41 -141,41 -142,0 -262,-74 -262,-202 0,-445 484,-323 484,-81 0,230 -51,116 20,222 43,-31 51,-57 81,-101 -345,-652 287,-2618 781,-3132 209,-217 567,-437 977,-320 225,64 475,233 689,339 85,42 144,72 229,114 658,329 551,396 940,242 90,-36 163,-59 254,-89 85,-29 155,-59 252,-91 202,-67 903,-345 1030,-321 295,56 435,417 179,642 -107,94 -945,348 -1147,426 -102,40 -177,63 -284,100 -768,261 -503,268 -1110,-35 -171,-85 -336,-169 -494,-251 -126,-66 -126,-73 -199,-185 -45,-70 -98,-153 -140,-224 -351,-589 -888,-203 -888,143 0,228 238,518 395,775 77,125 141,224 217,348 109,180 67,138 -10,387 -308,1005 14,923 -610,1064 -157,35 -292,68 -476,68 15,67 30,162 101,162 137,0 291,-39 418,-66 110,-23 259,-93 368,-96 22,95 417,837 498,996 106,207 471,838 471,1001 0,267 -177,1445 -219,1739 -60,427 -53,942 -290,1162 -157,144 -255,145 -440,145 -253,0 -504,-267 -504,-524 0,-183 116,-948 150,-1181l153 -1179c0,-74 -516,-982 -545,-1090l-40 0c-28,106 -186,190 -311,214 -462,91 -1021,-226 -1021,-476 0,-92 155,-233 202,-323 -73,27 -104,121 -222,121 -171,0 -252,-105 -262,-220zm242 119c-203,0 -179,-302 0,-302 188,0 209,302 0,302zm182 -584c0,-208 282,-208 282,0 0,193 -282,193 -282,0z"/>
   <path class="fil0" d="M7665 5350c0,343 250,629 447,784 461,364 647,417 1123,713 281,174 237,306 433,797 32,79 54,136 87,216 30,76 72,162 89,233 -182,0 -350,21 -507,38 -186,20 -327,8 -521,24 -768,63 -1971,59 -2682,-83 -265,-54 -468,-93 -702,-186 -138,-55 -510,-262 -510,-378 0,-113 867,-2370 962,-2608 142,-353 250,-635 579,-853 332,-221 913,-309 1174,40 368,492 28,944 28,1263zm-2400 706c0,-516 -606,-633 -839,-254 -48,77 -75,192 -58,303l209 1728c58,642 531,503 1051,503 525,0 427,-26 429,117 1,52 15,99 15,185l302 0 0 1190 -988 0c-347,0 -284,424 -40,424l2360 0c325,0 325,-424 0,-424l-989 0 0 -1190 303 0 0 -302 1351 0 174 552c66,196 117,370 182,565 107,319 157,819 673,819 305,0 565,-260 565,-565 0,-131 -372,-1302 -444,-1452 195,0 341,-41 525,-41l-406 -1066c-32,-97 -43,-179 -113,-251 -66,-68 -111,-116 -196,-167 -226,-137 -747,-420 -922,-550 -80,-59 -133,-88 -204,-159 -109,-109 -41,-7 -192,-191 -408,-498 -65,-610 -65,-1287 0,-771 -846,-1070 -1517,-650 -565,354 -684,985 -947,1636 -33,80 -68,174 -100,262 -16,43 -32,84 -50,133 -29,78 -14,92 -69,132z"/>
   <path class="fil0" d="M2663 993c0,1091 1443,1402 1910,478 198,-394 129,-886 -190,-1190 -396,-378 -1018,-382 -1433,31 -141,140 -287,409 -287,681z"/>
   <path class="fil0" d="M6959 2647c0,625 425,1049 1049,1049 525,0 969,-451 969,-1029 0,-532 -449,-988 -1029,-988 -517,0 -989,453 -989,968z"/>
   <path class="fil0" d="M5265 3999c0,-208 -132,-364 -343,-364 -496,0 -922,41 -1412,41 -38,-71 -65,-121 -109,-193l-707 -1110c-233,-253 -676,-46 -623,300 24,155 726,1215 862,1438 267,438 378,289 819,291 152,1 237,-19 362,-21 263,-3 484,-7 748,-19 216,-10 403,-141 403,-363z"/>
   <path class="fil0" d="M5366 7166c81,0 129,-236 174,-371 48,-148 100,-273 151,-414 50,-137 91,-272 147,-417 213,-552 436,-1390 912,-1610 107,-49 113,-13 189,-93 -63,-271 -533,127 -674,334 -133,197 -289,596 -381,830l-562 1556c-21,61 -76,185 44,185z"/>
   <path class="fil0" d="M5225 3615c0,-267 -284,-368 -477,-235l-88 113c-12,42 -12,79 72,36 45,-22 2,3 35,-27 33,-28 -4,-6 43,-40 91,-67 210,-43 273,33 0,0 136,221 202,221 101,0 90,-18 182,-20 -67,99 -201,112 -69,392 116,245 -111,295 -335,314 42,155 464,111 464,-242 0,-109 -77,-156 -121,-222 48,-71 124,-132 189,-214 82,-103 685,-145 861,-168 104,-14 100,-10 100,-122 -254,0 -525,80 -767,101 80,-119 467,-508 505,-565l-64 -78c-120,79 -549,607 -627,658 -45,30 -324,61 -378,65z"/>
  </g>
 </g>
</svg>
