<?xml version="1.0" encoding="UTF-8"?>
<!DOCTYPE svg PUBLIC "-//W3C//DTD SVG 1.1//EN" "http://www.w3.org/Graphics/SVG/1.1/DTD/svg11.dtd">
<!-- Creator: CorelDRAW X8 -->
<svg xmlns="http://www.w3.org/2000/svg" xml:space="preserve" width="169.418mm" height="169.316mm" version="1.1" style="shape-rendering:geometricPrecision; text-rendering:geometricPrecision; image-rendering:optimizeQuality; fill-rule:evenodd; clip-rule:evenodd"
viewBox="0 0 16942 16932"
 xmlns:xlink="http://www.w3.org/1999/xlink">
 <defs>
  <style type="text/css">
   <![CDATA[
    .fil0 {fill:#C29216}
   ]]>
  </style>
 </defs>
 <g id="Layer_x0020_1">
  <metadata id="CorelCorpID_0Corel-Layer"/>
  <g id="_1715600707072">
   <path class="fil0" d="M564 15803l15802 0 0 564 -15802 0 0 -564zm564 -2258l14674 0 0 1693 -14674 0 0 -564 1129 0 0 -564 -1129 0 0 -565zm2646 -1129l3280 0 0 -881c137,0 447,-43 565,-71l0 670 1693 0 0 -705c153,35 662,70 846,70l0 917 3459 1c33,10 111,50 169,75l958 489 -12452 0c143,-125 887,-417 1089,-499 401,-165 180,-66 393,-66zm6949 -1693l2257 0 0 1129 -2257 0 0 -1129zm-2540 -7337l564 0 0 8184 -564 0 0 -8184zm-3951 6773l2258 0 0 564 -564 0 0 565 564 0 0 564 -2258 0 0 -564 565 0 0 -565 -565 0 0 -564zm7337 -2822l565 0 0 2822 -565 0 0 -2822zm-6772 1129l1129 0 0 1129 -1129 0 0 -1129zm6208 -2258l1693 0 0 565 -1693 0 0 -565zm-7020 -35c188,-16 848,-331 1094,-388l0 847c-159,-37 -369,-137 -542,-199 -147,-52 -414,-178 -552,-189l0 -71zm4480 -5573c74,0 680,224 791,267 277,107 534,178 819,275l2380 829c274,92 550,170 818,276l1612 575 -12840 0 6420 -2222zm-8465 2504c0,171 111,282 282,282l7337 0 0 7514 -564 42 -1 -1347 -564 0 0 -1694 -847 0 0 -2610c0,-123 -152,-211 -317,-211 -98,0 -1123,401 -1295,468 -304,119 -1210,370 -1210,590 0,299 31,296 490,462l1208 451c711,257 560,87 560,850l-847 0 0 1694 -564 0 0 2081c0,128 -434,226 -666,322l-1369 641c-673,337 -364,342 -1069,342l0 2257 -564 0 0 1693 16931 0 0 -1693 -565 0 0 -2257c-812,0 -461,-76 -1258,-470 -349,-173 -1247,-703 -1563,-729l0 -1623 -847 0 0 -2822 564 0 0 -1693 -2821 0 0 1693 564 0 0 2822 -847 0 0 741c-322,0 -513,-36 -846,-36l0 -7478 7337 0c255,0 543,-413 -84,-622l-4850 -1675c-341,-113 -3102,-1089 -3250,-1089 -187,0 -1306,430 -1618,534 -181,60 -358,117 -556,185l-2150 742c-905,351 -2235,762 -3220,1119 -430,155 -921,206 -921,524z"/>
   <polygon class="fil0" points="12980,14674 15238,14674 15238,14110 12980,14110 "/>
   <polygon class="fil0" points="2821,14674 3386,14674 3386,14110 2821,14110 "/>
  </g>
 </g>
</svg>
