<?xml version="1.0" encoding="UTF-8"?>
<!DOCTYPE svg PUBLIC "-//W3C//DTD SVG 1.1//EN" "http://www.w3.org/Graphics/SVG/1.1/DTD/svg11.dtd">
<!-- Creator: CorelDRAW X8 -->
<svg xmlns="http://www.w3.org/2000/svg" xml:space="preserve" width="114.986mm" height="107.391mm" version="1.1" style="shape-rendering:geometricPrecision; text-rendering:geometricPrecision; image-rendering:optimizeQuality; fill-rule:evenodd; clip-rule:evenodd"
viewBox="0 0 11499 10739"
 xmlns:xlink="http://www.w3.org/1999/xlink">
 <defs>
  <style type="text/css">
   <![CDATA[
    .fil0 {fill:#C29216}
   ]]>
  </style>
 </defs>
 <g id="Layer_x0020_1">
  <metadata id="CorelCorpID_0Corel-Layer"/>
  <g id="_1715611751728">
   <polygon class="fil0" points="1055,4274 1488,3462 5281,5322 9073,3028 9579,3877 5786,6080 5750,10739 4884,10739 4884,6080 "/>
   <g>
    <path class="fil0" d="M6411 8880l0 128c117,210 92,286 520,285 271,-1 543,-1 814,0 271,0 247,57 539,-272 78,-86 105,-119 198,-208 58,-56 146,-154 190,-215 84,57 140,136 213,214 74,79 143,131 216,212 159,176 107,157 24,681 -32,208 -131,587 -27,748 127,199 417,210 577,5 94,-120 252,-1186 302,-1442 50,-253 44,-189 -283,-516 -92,-92 -386,-358 -437,-454l565 -555c342,271 506,733 916,321 227,-230 580,-547 760,-810l0 -133c-32,-55 -78,-200 -231,-239 -326,-81 -474,356 -786,557 -83,-24 -174,-118 -237,-187 -74,-81 -145,-128 -228,-202 -174,-155 -215,-309 -552,-308 -208,0 -683,-26 -859,3 -112,18 -157,118 -235,194 -72,71 -141,122 -216,192l-438 421c-170,199 -42,498 210,502 221,4 378,-256 484,-374 70,-79 143,-133 215,-214 117,-134 71,-109 300,-112l-1010 1143c-322,318 -218,353 -463,351 -173,-2 -685,-19 -794,18 -173,58 -164,120 -247,266z"/>
    <path class="fil0" d="M10344 5714c-664,143 -491,1154 202,1025 256,-48 473,-304 410,-628 -48,-242 -298,-464 -612,-397z"/>
   </g>
   <g>
    <path class="fil0" d="M3030 6487l177 90c-157,71 -298,144 -456,214 -602,268 -491,339 -231,1332 44,168 95,341 138,521 21,91 43,174 70,272 38,137 37,120 -27,237 -155,283 -314,587 -459,882 -92,185 -24,387 162,427 241,52 294,-124 373,-282 493,-990 544,-857 635,-2043 34,-435 -163,-729 -209,-1111 1127,-353 584,-552 -142,-971 16,215 -16,251 -31,432z"/>
    <path class="fil0" d="M242 7626c110,50 253,180 288,299 -177,35 -192,16 -296,-89l8 -210zm191 -155l1382 -997c102,70 116,187 328,248 570,163 932,-557 534,-925 -323,-297 -859,-97 -912,305 -32,244 59,77 -443,456l-1033 745c-122,84 -239,146 -277,336 -142,709 1033,644 704,145 -68,-104 -199,-237 -283,-313z"/>
    <path class="fil0" d="M3607 8404c-39,192 -63,451 -87,647 -62,511 -219,69 171,1094 66,174 129,395 405,310 220,-68 186,-291 110,-485l-599 -1566z"/>
    <path class="fil0" d="M483 5694c-179,136 -316,481 -381,691 -81,257 -183,1024 78,764 47,-47 55,-383 71,-470 49,-276 151,-538 311,-758 29,-39 98,-113 85,-185 -8,-44 -22,-61 -58,-73 -105,-38 -100,26 -106,31z"/>
    <path class="fil0" d="M767 6514c0,109 109,168 185,91 93,-94 -26,-244 189,-520 57,-73 161,-131 167,-207 25,-330 -541,80 -541,636z"/>
    <path class="fil0" d="M234 7836c104,105 119,124 296,89 -35,-119 -178,-249 -288,-299l-8 210z"/>
   </g>
   <g>
    <path class="fil0" d="M5364 1779c-49,23 -514,128 -606,151l-1226 298c-171,43 -257,92 -362,214 -23,27 -61,85 -65,127 104,-9 153,-97 265,-165 212,-128 546,-128 758,0 56,34 75,55 123,93 101,80 90,72 232,72 187,0 179,-260 689,-260 388,0 456,260 621,260 165,0 139,3 263,-98 46,-38 115,-91 177,-105 0,-305 -173,-517 -340,-744l-450 -634c48,-12 574,-443 629,-488 92,-74 150,-117 150,-257 0,-66 -35,-132 -70,-167 -97,-96 -239,-101 -351,-17l-695 547c-76,56 -217,157 -248,238 -58,150 15,238 97,349 72,97 135,193 207,290 37,50 66,95 103,146 25,33 90,116 99,150z"/>
    <path class="fil0" d="M6346 1485c0,174 23,337 134,476 459,580 1300,224 1300,-419 0,-662 -791,-952 -1223,-523 -95,95 -211,281 -211,466z"/>
    <path class="fil0" d="M2247 2987c0,237 157,83 335,219 109,83 158,152 326,181 141,25 326,11 431,-42 55,-28 102,-64 147,-102 110,-93 216,-134 381,-91 110,28 170,140 307,200 79,34 118,33 217,44 321,35 431,-129 545,-204 107,-71 287,-74 396,-4 104,65 240,248 543,209 185,-24 213,-17 369,-139 122,-95 157,-141 371,-112 198,27 245,319 743,243 97,-15 190,-58 256,-117 104,-94 132,-114 264,-130 99,-12 139,-50 150,-91l0 -56c-7,-34 -27,-63 -38,-71 -105,-79 -334,19 -417,70 -184,114 -91,162 -414,162 -214,0 -242,-259 -632,-259 -258,0 -331,93 -468,198 -95,73 -176,61 -289,61 -212,0 -243,-259 -632,-259 -153,0 -248,36 -341,99 -210,140 -123,160 -416,160 -212,0 -237,-259 -632,-259 -386,0 -421,259 -632,259 -110,0 -191,12 -283,-56 -121,-89 -203,-203 -462,-203 -53,0 -125,44 -125,90z"/>
    <path class="fil0" d="M2247 2535c0,237 167,90 335,219 98,76 166,156 325,183 487,85 558,-206 745,-239 314,-56 328,118 522,202 82,35 114,32 214,47 270,40 408,-102 549,-206 98,-71 303,-70 395,-5 112,79 148,146 316,192 48,14 173,29 230,20 184,-27 214,-22 366,-142 117,-91 161,-141 370,-110 210,31 236,314 745,243 94,-13 185,-61 255,-118 106,-86 109,-112 266,-130 95,-10 137,-50 148,-93l0 -55c-8,-35 -30,-65 -54,-78 -31,-16 -67,-22 -110,-16 -409,56 -332,222 -550,253 -343,48 -344,-143 -557,-217 -142,-49 -292,-52 -435,-8 -243,75 -204,228 -486,231 -322,4 -289,-263 -698,-263 -134,0 -261,40 -362,113 -110,79 -120,148 -329,150 -319,4 -288,-263 -698,-263 -67,0 -166,19 -222,38 -230,76 -205,260 -555,220 -144,-16 -215,-139 -333,-198 -71,-36 -125,-41 -218,-54 -44,-7 -74,-7 -112,10 -25,12 -62,44 -62,74z"/>
   </g>
  </g>
 </g>
</svg>
