<?xml version="1.0" encoding="UTF-8"?>
<!DOCTYPE svg PUBLIC "-//W3C//DTD SVG 1.1//EN" "http://www.w3.org/Graphics/SVG/1.1/DTD/svg11.dtd">
<!-- Creator: CorelDRAW X8 -->
<svg xmlns="http://www.w3.org/2000/svg" xml:space="preserve" width="137.734mm" height="165.928mm" version="1.1" style="shape-rendering:geometricPrecision; text-rendering:geometricPrecision; image-rendering:optimizeQuality; fill-rule:evenodd; clip-rule:evenodd"
viewBox="0 0 13773 16593"
 xmlns:xlink="http://www.w3.org/1999/xlink">
 <defs>
  <style type="text/css">
   <![CDATA[
    .fil0 {fill:#C29216}
   ]]>
  </style>
 </defs>
 <g id="Layer_x0020_1">
  <metadata id="CorelCorpID_0Corel-Layer"/>
  <g id="_1447107082176">
   <path class="fil0" d="M0 1167c0,360 44,596 216,885 67,113 93,153 181,241 266,267 391,402 727,602 546,325 1190,561 1715,909 304,201 537,534 704,852 190,361 23,105 -80,624 -88,439 327,1076 486,1465 236,575 546,1519 1171,1519 358,0 557,-69 786,-283 93,-87 149,-114 244,-211 101,-103 161,-136 259,-227 262,-244 714,-689 980,-867 6,266 254,995 324,1264 123,468 279,806 230,1299 -48,483 -108,967 -159,1429 -30,265 -48,469 -77,734 -9,85 -27,233 -44,345 -50,344 -271,451 -509,690l-1556 1620c-72,73 -121,122 -194,194l-594 637c-555,706 -81,1705 667,1705 269,0 487,-22 712,-163 151,-94 2240,-2283 2277,-2325 66,-74 73,-103 146,-178 299,-311 654,-593 898,-949 232,-339 294,-1632 348,-2116l90 -820c26,-306 147,-61 414,207l1251 1213c100,123 54,390 54,561 0,821 0,1642 0,2463 0,477 -15,742 175,1057 462,770 1931,671 1931,-765l0 -3500c0,-439 -93,-720 -315,-949l-472 -467c-285,-238 -545,-514 -809,-780 -123,-124 -221,-186 -340,-307 -260,-263 -512,-559 -805,-783 -225,-171 -353,-843 -454,-1134 -113,-322 -214,-608 -325,-940l-251 -720c-33,-93 -49,-165 -85,-240 335,-224 2312,-1677 2478,-1897 408,-540 172,-1473 -793,-1473 -386,0 -1243,746 -1569,991l-2690 1815c-487,298 -700,489 -1111,833 -242,203 -432,433 -690,606 -35,-147 -118,-294 -184,-432 -75,-156 -126,-303 -206,-442 -329,-575 -851,-399 -1013,-448 -167,-51 -486,-428 -588,-576 -690,-1004 -400,-2166 -1070,-3175l-308 -373c-281,-284 -628,-387 -1039,-387 -356,0 -613,207 -807,392 -215,205 -327,456 -327,775z"/>
   <path class="fil0" d="M8847 2042c0,-2005 -2690,-2403 -3399,-742 -139,325 -201,693 -115,1112 70,339 274,686 475,887 202,202 529,391 860,468 1106,258 2179,-574 2179,-1725z"/>
  </g>
 </g>
</svg>
