<?xml version="1.0" encoding="UTF-8"?>
<!DOCTYPE svg PUBLIC "-//W3C//DTD SVG 1.1//EN" "http://www.w3.org/Graphics/SVG/1.1/DTD/svg11.dtd">
<!-- Creator: CorelDRAW X8 -->
<svg xmlns="http://www.w3.org/2000/svg" xml:space="preserve" width="155.473mm" height="162.357mm" version="1.1" style="shape-rendering:geometricPrecision; text-rendering:geometricPrecision; image-rendering:optimizeQuality; fill-rule:evenodd; clip-rule:evenodd"
viewBox="0 0 15547 16236"
 xmlns:xlink="http://www.w3.org/1999/xlink">
 <defs>
  <style type="text/css">
   <![CDATA[
    .fil0 {fill:#C29216}
   ]]>
  </style>
 </defs>
 <g id="Layer_x0020_1">
  <metadata id="CorelCorpID_0Corel-Layer"/>
  <g id="_2581406578800">
   <path class="fil0" d="M6588 11897c-148,-4 -359,-65 -489,-87l-1462 -265c54,-202 375,-609 507,-772 457,-569 1456,-1176 2168,-1382 112,-33 177,-41 267,-85 222,332 547,693 640,832 -42,57 -146,129 -216,200 -89,91 -137,110 -224,191l-1191 1368zm-4765 -2846l0 2206c0,1194 1323,1217 1569,354 65,-228 28,-2308 28,-2723 0,-191 -21,-163 233,-437 93,-101 245,-293 376,-328l590 1969c135,465 79,140 -320,795 -602,985 -508,1100 149,1231l1880 359c881,146 405,52 1082,-686 143,-156 139,-124 512,-77l1195 148c184,21 457,6 542,130 137,200 1723,3470 2046,3998 341,557 1151,35 1151,-288 0,-377 -10,-226 -160,-607l-1206 -2855c-121,-282 -578,-1436 -707,-1596 -176,-218 -385,-366 -727,-425l-1070 -113c-142,-296 -60,-120 -312,-391 -67,-73 -91,-116 -159,-193l-634 -805c-85,-67 -163,-82 -302,-82l-863 -2815c-332,-757 -988,-475 -1491,-307 -905,304 -1037,196 -1907,1067 -529,529 -894,1039 -1341,1634 -135,180 -154,525 -154,837z"/>
   <path class="fil0" d="M0 13240c0,312 179,467 384,575 0,366 -69,1856 88,2119 216,364 703,341 928,144 68,-59 151,-214 164,-315l3 -956c0,-135 23,-178 26,-259l-26 -413c0,-160 29,-143 32,-288l5724 0 0 1727c0,805 1017,825 1170,243 71,-268 14,-625 14,-914 0,-135 23,-178 25,-259l-25 -381c0,-239 52,-190 0,-416 808,-188 514,-1183 -32,-1183l-7899 0c-312,0 -576,269 -576,576z"/>
   <path class="fil0" d="M2974 3678c0,511 108,888 455,1208 425,391 1074,548 1635,274 174,-84 317,-161 446,-289 964,-965 217,-2568 -1033,-2568 -809,0 -1503,698 -1503,1375z"/>
   <path class="fil0" d="M10042 2143c0,1381 1374,2191 667,4089 -36,94 -99,218 -124,324 275,-184 849,-748 1042,-1004 603,-800 807,-1838 169,-2701 -534,-722 -1010,-1390 -718,-2422 63,-224 136,-293 147,-429 -422,283 -545,405 -826,838 -186,288 -357,834 -357,1305z"/>
   <path class="fil0" d="M14039 8731c0,-1005 693,-1032 1156,-1658 138,-186 238,-394 296,-663 321,-1487 -837,-2118 -972,-2700l-53 139c-24,154 61,389 117,501 570,1155 90,1584 -363,2483 -192,381 -422,758 -407,1259 8,239 87,537 226,639z"/>
   <path class="fil0" d="M8602 3998c0,531 239,1033 461,1362 578,860 768,1266 311,2256l-260 475c260,-174 541,-555 703,-832l237 -531c446,-1439 -307,-1286 -833,-2453 -172,-380 -171,-701 -171,-1109 0,-251 79,-373 96,-575 -276,185 -544,973 -544,1407z"/>
   <polygon class="fil0" points="14039,8731 14039,8763 14076,8736 "/>
  </g>
 </g>
</svg>
