<?xml version="1.0" encoding="UTF-8"?>
<svg width="46px" height="45px" viewBox="0 0 46 45" version="1.1" xmlns="http://www.w3.org/2000/svg" xmlns:xlink="http://www.w3.org/1999/xlink">
    <!-- Generator: Sketch 53 (72520) - https://sketchapp.com -->
    <title>playground</title>
    <desc>Created with Sketch.</desc>
    <g id="Page-1" stroke="none" stroke-width="1" fill="none" fill-rule="evenodd">
        <g id="Seven-elements---PPC-v2" transform="translate(-379.000000, -2969.000000)" fill="#FFFFFF" fill-rule="nonzero">
            <g id="playground" transform="translate(379.000000, 2969.000000)">
                <path d="M45.1805535,43.6696226 L44.7148839,43.6696226 C43.9820833,40.9967228 41.5492955,39.1309327 38.7938824,39.1309327 C38.0414348,39.1309327 37.3524092,38.7485445 36.950851,38.1076455 L36.7347334,37.7620388 L36.7347334,37.4653584 C40.4159707,37.1280796 43.3099472,34.0047809 43.3099472,30.2124764 L43.3099472,16.2219995 C43.3099472,15.8545322 43.0142074,15.5568107 42.6491858,15.5568107 C42.2841642,15.5568107 41.9884244,15.8545322 41.9884244,16.2219995 L41.9884244,30.2124764 C41.9884244,33.2708872 39.6859276,35.7966611 36.7347334,36.1287351 L36.7347334,31.8364113 L39.8579255,28.6919459 C40.1160947,28.4320469 40.1160947,28.0111424 39.8579255,27.7512434 C39.600101,27.4916914 39.1816533,27.4916914 38.9238288,27.7512434 L36.7347334,29.9553534 L36.7347334,23.7889116 L39.8579255,20.6444462 C40.1160947,20.3845471 40.1160947,19.9636427 39.8579255,19.7037437 C39.600101,19.4441917 39.1816533,19.4441917 38.9238288,19.7037437 L36.7347334,21.9078537 L36.7347334,16.6460269 C36.7347334,16.2789065 36.4386488,15.9808382 36.073972,15.9808382 C35.7089504,15.9808382 35.4132105,16.2789065 35.4132105,16.6460269 L35.4132105,21.8363727 L33.0976157,19.5052628 C32.8397912,19.2457108 32.4213434,19.2457108 32.163519,19.5052628 C31.9053498,19.7651617 31.9053498,20.1860663 32.163519,20.4459653 L35.4132105,23.7174307 L35.4132105,29.8838724 L33.0976157,27.5531094 C32.8397912,27.2932105 32.4213434,27.2932105 32.163519,27.5531094 C31.9053498,27.8126614 31.9053498,28.233913 32.163519,28.493465 L35.4132105,31.7652774 L35.4132105,35.6526584 L30.1591749,27.2651039 L30.1591749,13.1726105 C30.1591749,9.88934727 32.8125611,7.21818248 36.073972,7.21818248 C39.3353828,7.21818248 41.9884244,9.88934727 41.9884244,13.1726105 C41.9884244,13.5397309 42.2841642,13.8374523 42.6491858,13.8374523 C43.0142074,13.8374523 43.3099472,13.5397309 43.3099472,13.1726105 C43.3099472,9.15580055 40.0637026,5.88815204 36.073972,5.88815204 C32.0842414,5.88815204 28.8379967,9.15580055 28.8379967,13.1726105 L28.8379967,25.2629448 C27.6795099,23.8704553 25.9753865,23.0595289 24.1364913,23.0595289 L19.6380055,23.0595289 L19.6380055,9.91780087 C19.6380055,9.8924702 19.6362821,9.86748658 19.6335246,9.84285003 C19.6328352,9.83764509 19.6318011,9.83278712 19.6311118,9.82792924 C19.6280096,9.80398663 19.6235287,9.78108494 19.6180137,9.75818325 C19.6162903,9.75193739 19.6149116,9.74569153 19.6131882,9.73944558 C19.598022,9.68462048 19.5759622,9.63257124 19.5480427,9.58433896 C19.5449405,9.57844007 19.5414936,9.57288816 19.5380468,9.56733624 C19.5242593,9.54512859 19.5097826,9.52396193 19.4935824,9.50348923 C19.4922037,9.50175428 19.4911696,9.50001924 19.4897908,9.49828429 L12.2193471,0.498631277 C11.963246,0.181825192 11.5837477,0 11.1780533,0 C10.7720141,0 10.3925158,0.181825192 10.1364147,0.498631277 L2.86597096,9.49828429 C2.86459222,9.50001924 2.86355814,9.50175428 2.8621794,9.50348923 C2.84632393,9.52396193 2.83150244,9.54512859 2.8180597,9.56733624 C2.81461289,9.57288816 2.811166,9.57844007 2.80771919,9.58433896 C2.77979972,9.63257124 2.75773987,9.68462048 2.74257363,9.73944558 C2.74119498,9.74569153 2.73947149,9.75193739 2.73809275,9.75818325 C2.73223312,9.78108494 2.72775224,9.80398663 2.72465009,9.82792924 C2.72396068,9.83278712 2.7229266,9.83764509 2.72258194,9.84285003 C2.71982446,9.86748658 2.7177563,9.8924702 2.7177563,9.91780087 L2.7177563,12.2908972 L2.7177563,12.2915912 L2.7177563,23.9117477 L2.7177563,23.9127886 L2.7177563,33.8527972 C2.7177563,34.2199175 3.01384086,34.5176389 3.37851779,34.5176389 C3.7435393,34.5176389 4.03927919,34.2199175 4.03927919,33.8527972 L4.03927919,26.9507268 L5.2863501,26.9507268 L5.2863501,43.6304121 L4.03927919,43.6304121 L4.03927919,37.1398774 C4.03927919,36.7727571 3.7435393,36.4746887 3.37851779,36.4746887 C3.01384086,36.4746887 2.71810105,36.7727571 2.71810105,37.1398774 L2.71810105,43.6696226 L1.32350491,43.6696226 C0.958483317,43.6696226 0.662743506,43.967691 0.662743506,44.3348113 C0.662743506,44.7022786 0.958483317,45 1.32350491,45 L45.1805535,45 C45.5455751,45 45.8413149,44.7022786 45.8413149,44.3348113 C45.8413149,43.9673439 45.5455751,43.6696226 45.1805535,43.6696226 L45.1805535,43.6696226 Z M28.2144612,26.6543934 L35.8333817,38.8172495 C36.4782876,39.8467826 37.5850717,40.4613101 38.7938824,40.4613101 C40.8326951,40.4613101 42.6464283,41.762887 43.3292496,43.6696226 L41.8877763,43.6696226 C41.2876795,42.5297452 40.0974817,41.7909936 38.7938824,41.7909936 C37.1280191,41.7909936 35.6034767,40.9446737 34.7159125,39.5272005 C34.5211654,39.2162933 34.1134029,39.1232988 33.8049096,39.3193507 C33.4960718,39.5150558 33.4036961,39.9258974 33.5980986,40.2364576 C34.0747981,40.9974169 34.6959207,41.628947 35.4132105,42.1050238 L35.4132105,43.6696226 L19.6676484,43.6696226 L19.6676484,27.0503142 L24.1364913,27.0503142 C24.8892837,27.0503142 25.5783092,27.4327023 25.9795228,28.0736014 L31.6878534,37.1867217 C31.8822559,37.4972819 32.2903632,37.5902765 32.599201,37.3945715 C32.9076942,37.1985195 33.0000698,36.7880249 32.8056674,36.4771177 L27.0973367,27.3643444 C26.4524308,26.3348113 25.3456468,25.7202838 24.1364913,25.7202838 L19.6376607,25.7202838 L19.6376607,24.3899062 L24.1364913,24.3899063 C25.8016652,24.3895593 27.3262076,25.2362263 28.2144612,26.6543934 L28.2144612,26.6543934 Z M38.7938824,43.1210241 C39.3329701,43.1210241 39.8403466,43.3250568 40.2301854,43.6696226 L36.7347334,43.6696226 L36.7347334,42.7667425 C37.3844649,42.9981879 38.0790055,43.1210241 38.7938824,43.1210241 L38.7938824,43.1210241 Z M12.4171964,36.0215136 L12.4171964,37.7151946 L9.93891015,37.7151946 L9.93891015,36.0215136 L12.4171964,36.0215136 Z M9.93856549,34.6914832 L9.93856549,32.9981494 L12.4171964,32.9981494 L12.4171964,34.6914832 L9.93856549,34.6914832 Z M12.4171964,31.6677719 L9.93891015,31.6677719 L9.93891015,29.9744381 L12.4171964,29.9744381 L12.4171964,31.6677719 Z M9.93856549,39.045225 L12.4171964,39.045225 L12.4171964,40.7389058 L9.93856549,40.7389058 L9.93856549,39.045225 Z M12.4171964,28.6444077 L9.93891015,28.6444077 L9.93891015,26.9507268 L12.4171964,26.9507268 L12.4171964,28.6444077 Z M9.93856549,43.6696226 L9.93856549,42.0689363 L12.4171964,42.0689363 L12.4171964,43.6696226 L9.93856549,43.6696226 Z M13.7383745,26.9507268 L15.7782212,26.9507268 L15.7782212,43.6696226 L13.7383745,43.6696226 L13.7383745,26.9507268 Z M7.41581488,23.2475999 L7.41581488,19.4601534 C7.41581488,17.3719397 9.10339336,15.672707 11.1780533,15.672707 C13.2523684,15.672707 14.9402917,17.3715927 14.9402917,19.4601534 L14.9402917,23.2475999 L7.41581488,23.2475999 Z M11.1780533,14.3426765 C8.374729,14.3426765 6.09463674,16.6383931 6.09463674,19.4601534 L6.09463674,23.2475999 L4.03927919,23.2475999 L4.03927919,12.9560859 L18.3164826,12.9560859 L18.3164826,23.2475999 L16.2614698,23.2475999 L16.2614698,19.4601534 C16.2614698,16.6383931 13.9810329,14.3426765 11.1780533,14.3426765 Z M18.3464702,26.9507268 L18.3464702,43.6304121 L17.0993994,43.6304121 L17.0993994,26.9507268 L18.3464702,26.9507268 Z M11.1615084,1.33801134 C11.167368,1.33107144 11.1887384,1.33107144 11.1942534,1.33801134 L17.5885076,9.25261208 L12.57196,9.25261208 C12.2069384,9.25261208 11.9111985,9.5506805 11.9111985,9.91780087 C11.9111985,10.2852681 12.2069384,10.5829896 12.57196,10.5829896 L18.3164826,10.5829896 L18.3164826,11.6257085 L4.03927919,11.6257085 L4.03927919,10.5829896 L9.38672459,10.5829896 C9.75174609,10.5829896 10.047486,10.2852681 10.047486,9.91780087 C10.047486,9.5506805 9.75174609,9.25261208 9.38672459,9.25261208 L4.76759889,9.25261208 L11.1615084,1.33801134 Z M4.03927919,25.6206963 L4.03927919,24.5776305 L18.2806353,24.5776305 L18.2806353,25.6206963 L4.03927919,25.6206963 Z M6.60752824,26.9507268 L8.61738735,26.9507268 L8.61738735,43.6696226 L6.60752824,43.6696226 L6.60752824,26.9507268 Z" id="Shape"></path>
            </g>
        </g>
    </g>
</svg>