<?xml version="1.0" encoding="UTF-8"?>
<svg width="54px" height="47px" viewBox="0 0 54 47" version="1.1" xmlns="http://www.w3.org/2000/svg" xmlns:xlink="http://www.w3.org/1999/xlink">
    <!-- Generator: Sketch 53 (72520) - https://sketchapp.com -->
    <title>supermarket</title>
    <desc>Created with Sketch.</desc>
    <g id="Page-1" stroke="none" stroke-width="1" fill="none" fill-rule="evenodd">
        <g id="Seven-elements---PPC-v2" transform="translate(-124.000000, -3150.000000)" fill="#FFFFFF" fill-rule="nonzero">
            <g id="supermarket" transform="translate(124.000000, 3150.000000)">
                <path d="M10.7841797,31.3765798 C11.2208862,31.3765798 11.5751953,31.727448 11.5751953,32.1599131 L11.5751953,38.2699131 C11.5751953,38.7027865 11.2208862,39.0532465 10.7841797,39.0532465 L6.51269531,39.0532465 C6.07598877,39.0532465 5.72167969,38.7027865 5.72167969,38.2699131 L5.72167969,32.1599131 C5.72167969,31.727448 6.07598877,31.3765798 6.51269531,31.3765798 L10.7841797,31.3765798 Z M9.99316406,37.4865798 L9.99316406,32.9432465 L7.30371094,32.9432465 L7.30371094,37.4865798 L9.99316406,37.4865798 Z M43.2158203,31.3765798 L47.4873047,31.3765798 C47.9240112,31.3765798 48.2783203,31.727448 48.2783203,32.1599131 L48.2783203,38.2699131 C48.2783203,38.7027865 47.9240112,39.0532465 47.4873047,39.0532465 L43.2158203,39.0532465 C42.7791138,39.0532465 42.4248047,38.7027865 42.4248047,38.2699131 L42.4248047,32.1599131 C42.4248047,31.727448 42.7791138,31.3765798 43.2158203,31.3765798 Z M46.6962891,37.4865798 L46.6962891,32.9432465 L44.0068359,32.9432465 L44.0068359,37.4865798 L46.6962891,37.4865798 Z M18.984375,4.80444444 C18.984375,4.37157121 19.3386841,4.02111111 19.7753906,4.02111111 L34.2246094,4.02111111 C34.6613159,4.02111111 35.015625,4.37197917 35.015625,4.80444444 C35.015625,5.23690972 34.6613159,5.58777778 34.2246094,5.58777778 L19.7753906,5.58777778 C19.3386841,5.58777778 18.984375,5.23690972 18.984375,4.80444444 Z M50.9414062,32.7082465 C50.5046997,32.7082465 50.1503906,32.3577865 50.1503906,31.9249131 L50.1503906,28.2171354 L40.5527344,28.2171354 L40.5527344,42.2126909 L50.1503906,42.2126909 L50.1503906,34.8493576 C50.1503906,34.4168924 50.5046997,34.0660243 50.9414062,34.0660243 C51.3781128,34.0660243 51.7324219,34.4168924 51.7324219,34.8493576 L51.7324219,42.2126909 L53.2089844,42.2126909 C53.6456909,42.2126909 54,42.5635591 54,42.9960243 L54,46.1815798 C54,46.6144532 53.6456909,46.9649131 53.2089844,46.9649131 L0.791015625,46.9649131 C0.354309082,46.9649131 -2.84217094e-14,46.6144532 -2.84217094e-14,46.1815798 L-2.84217094e-14,42.9960243 C-2.84217094e-14,42.5635591 0.354309082,42.2126909 0.791015625,42.2126909 L2.26757812,42.2126909 L2.26757812,28.2171354 L0.791015625,28.2171354 C0.354309082,28.2171354 -2.84217094e-14,27.8666754 -2.84217094e-14,27.433802 L-2.84217094e-14,23.9524566 C-2.84217094e-14,23.5199913 0.354309082,23.1691232 0.791015625,23.1691232 L4.78111264,23.1691232 C5.21823115,23.1691232 5.57212827,23.5199913 5.57212827,23.9524566 C5.57212827,24.3853298 5.21823115,24.7357899 4.78111264,24.7357899 L1.58203125,24.7357899 L1.58203125,26.6504687 L13.4472656,26.6504687 L13.4472656,24.7357899 L7.73423764,24.7357899 C7.2975311,24.7357899 6.94322202,24.3853298 6.94322202,23.9524566 C6.94322202,23.5199913 7.2975311,23.1691232 7.73423764,23.1691232 L13.4472656,23.1691232 L13.4472656,22.3972135 C12.3703308,22.0753125 11.583847,21.0839063 11.583847,19.9142101 L11.583847,17.3553212 L10.2832031,17.3553212 C9.84649658,17.3553212 9.4921875,17.0044532 9.4921875,16.5719879 L9.4921875,13.0906424 C9.4921875,12.6577691 9.84649658,12.3073091 10.2832031,12.3073091 L17.1736908,12.3073091 L17.1736908,10.253099 L14.2205658,10.253099 C13.7838592,10.253099 13.4295501,9.90223093 13.4295501,9.46976565 L13.4295501,0.835555556 C13.4295501,0.403090278 13.7838592,0.0522222222 14.2205658,0.0522222222 L19.9863281,0.0522222222 C20.4230347,0.0522222222 20.7773437,0.403090278 20.7773437,0.835555556 C20.7773437,1.26802083 20.4230347,1.61888889 19.9863281,1.61888889 L15.0115814,1.61888889 L15.0115814,8.68643232 L38.9884186,8.68643232 L38.9884186,1.61888889 L22.9394531,1.61888889 C22.5027466,1.61888889 22.1484375,1.26802083 22.1484375,0.835555556 C22.1484375,0.403090278 22.5027466,0.0522222222 22.9394531,0.0522222222 L39.7794342,0.0522222222 C40.2161408,0.0522222222 40.5704499,0.403090278 40.5704499,0.835555556 L40.5704499,9.46935759 C40.5704499,9.90223093 40.2161408,10.2526909 39.7794342,10.2526909 L36.8263092,10.2526909 L36.8263092,12.306901 L43.7167969,12.306901 C44.1535034,12.306901 44.5078125,12.6577691 44.5078125,13.0902343 L44.5078125,16.5719879 C44.5078125,17.0044532 44.1535034,17.3553212 43.7167969,17.3553212 L42.416153,17.3553212 L42.416153,19.9142101 C42.416153,21.0839063 41.6296692,22.0753125 40.5527344,22.3972135 L40.5527344,23.1691232 L53.2089844,23.1691232 C53.6456909,23.1691232 54,23.5199913 54,23.9524566 L54,27.433802 C54,27.8666754 53.6456909,28.2171354 53.2089844,28.2171354 L51.7324219,28.2171354 L51.7324219,31.9249131 C51.7324219,32.3577865 51.3781128,32.7082465 50.9414062,32.7082465 Z M52.4179687,24.7357899 L40.5527344,24.7357899 L40.5527344,26.6504687 C42.1730804,26.6504687 51.2310334,26.6504687 52.4179687,26.6504687 L52.4179687,24.7357899 Z M36.1934967,42.2126909 L38.9707031,42.2126909 L38.9707031,26.4766667 L15.0292969,26.4766667 C15.0292969,28.9372309 15.0292969,40.831658 15.0292969,42.2126909 L17.8065033,42.2126909 L17.8065033,30.7760243 C17.8065033,30.3435591 18.1608124,29.9926909 18.5975189,29.9926909 L35.4024811,29.9926909 C35.8391876,29.9926909 36.1934967,30.3435591 36.1934967,30.7760243 L36.1934967,42.2126909 Z M19.3885345,42.2126909 L26.2089844,42.2126909 L26.2089844,31.5593576 L19.3885345,31.5593576 L19.3885345,42.2126909 Z M27.7910156,31.5593576 L27.7910156,42.2126909 L34.6114655,42.2126909 L34.6114655,31.5593576 L27.7910156,31.5593576 Z M18.8966217,17.3549131 L16.8222656,17.3549131 L16.8222656,19.913802 C16.8222656,20.4804948 17.2873993,20.9411111 17.8596497,20.9411111 C18.431488,20.9411111 18.8966217,20.4804948 18.8966217,19.913802 L18.8966217,17.3549131 Z M22.552597,17.3549131 L20.478653,17.3549131 L20.478653,19.913802 C20.478653,20.4804948 20.9437866,20.9411111 21.515625,20.9411111 C22.0874634,20.9411111 22.552597,20.4804948 22.552597,19.913802 L22.552597,17.3549131 Z M26.2089844,17.3549131 L24.1350403,17.3549131 L24.1350403,19.913802 C24.1350403,20.4804948 24.600174,20.9411111 25.1720124,20.9411111 C25.7438507,20.9411111 26.2089844,20.4804948 26.2089844,19.913802 L26.2089844,17.3549131 Z M29.8653717,17.3549131 L27.7910156,17.3549131 L27.7910156,19.913802 C27.7910156,20.4804948 28.2561493,20.9411111 28.8283997,20.9411111 C29.400238,20.9411111 29.8653717,20.4804948 29.8653717,19.913802 L29.8653717,17.3549131 Z M33.521347,17.3549131 L31.447403,17.3549131 L31.447403,19.913802 C31.447403,20.4804948 31.9125366,20.9411111 32.484375,20.9411111 C33.0562134,20.9411111 33.521347,20.4804948 33.521347,19.913802 L33.521347,17.3549131 Z M37.1777344,17.3549131 L35.1037903,17.3549131 L35.1037903,19.913802 C35.1037903,20.4804948 35.568924,20.9411111 36.1407624,20.9411111 C36.7126007,20.9411111 37.1777344,20.4804948 37.1777344,19.913802 L37.1777344,17.3549131 Z M15.0292969,22.3747743 C15.0292969,23.2735677 15.0292969,24.1580816 15.0297088,24.91 L38.9711151,24.91 L38.9711151,22.3747743 C38.5908509,22.2495226 38.2497253,22.0402257 37.969162,21.769323 C36.9614411,22.7435937 35.338623,22.7615452 34.3127747,21.7697309 C33.3116455,22.7370659 31.6892396,22.7676649 30.6563874,21.7697309 C29.662674,22.7305381 28.0410919,22.7754167 27,21.7697309 C25.9865112,22.7484896 24.3653412,22.7574653 23.3440247,21.7697309 C22.3309479,22.7484896 20.7106019,22.7582813 19.6876374,21.7697309 C18.6893921,22.7346181 17.0661621,22.7701129 16.030838,21.769323 C15.7506867,22.0402257 15.4091491,22.2491146 15.0292969,22.3747743 Z M40.8341217,19.913802 L40.8341217,17.3549131 L38.7597656,17.3549131 L38.7597656,19.913802 C38.7597656,20.4686631 39.2162476,20.9288715 39.7769623,20.9394792 C40.370224,20.9509028 40.8341217,20.476823 40.8341217,19.913802 Z M35.244278,12.306901 L35.244278,10.2526909 L34.1895905,10.2526909 L34.1895905,12.306901 L35.244278,12.306901 Z M32.6075592,10.2526909 L21.3924408,10.2526909 L21.3924408,12.306901 L32.6075592,12.306901 L32.6075592,10.2526909 Z M18.755722,10.2526909 L18.755722,12.306901 L19.8104095,12.306901 L19.8104095,10.2526909 L18.755722,10.2526909 Z M11.0742187,13.8735677 L11.0742187,15.7882465 C13.8880921,15.7882465 38.3968048,15.7882465 42.9257812,15.7882465 L42.9257812,13.8735677 L11.0742187,13.8735677 Z M13.1658783,17.3549131 L13.1662903,17.3549131 L13.1662903,19.913802 C13.1662903,20.4764149 13.629364,20.9509028 14.2230377,20.9394792 C14.7841644,20.9288715 15.2402344,20.4686631 15.2402344,19.913802 L15.2402344,17.3549131 L13.1658783,17.3549131 Z M3.84960937,28.2171354 L3.84960937,42.2126909 L13.4472656,42.2126909 L13.4472656,28.2171354 L3.84960937,28.2171354 Z M52.4179687,45.3982465 L52.4179687,43.7793576 L1.58203125,43.7793576 L1.58203125,45.3982465 L52.4179687,45.3982465 Z" id="Combined-Shape"></path>
            </g>
        </g>
    </g>
</svg>