<?xml version="1.0" encoding="UTF-8"?>
<svg width="48px" height="40px" viewBox="0 0 48 40" version="1.1" xmlns="http://www.w3.org/2000/svg" xmlns:xlink="http://www.w3.org/1999/xlink">
    <!-- Generator: Sketch 53 (72520) - https://sketchapp.com -->
    <title>theater</title>
    <desc>Created with Sketch.</desc>
    <g id="Page-1" stroke="none" stroke-width="1" fill="none" fill-rule="evenodd">
        <g id="Seven-elements---PPC-v2" transform="translate(-379.000000, -3155.000000)" fill="#FFFFFF" fill-rule="nonzero">
            <g id="theater" transform="translate(379.000000, 3155.000000)">
                <path d="M46.1819063,0.306728972 C46.4240625,0.511869159 46.563,0.811214953 46.563,1.12813084 L46.563,9.68691589 C46.563,10.0745794 46.2478125,10.3888785 45.8588438,10.3888785 C45.469875,10.3888785 45.1546875,10.0746729 45.1546875,9.68691589 L45.1546875,1.5111215 C42.3122813,1.95971963 33.980625,3.12130841 24,3.12130841 C14.0188125,3.12130841 5.6870625,1.95962617 2.84521875,1.5111215 L2.84521875,9.69065421 C2.84521875,10.0784112 2.53003125,10.3926168 2.1410625,10.3926168 C1.75209375,10.3926168 1.43690625,10.0783178 1.4368125,9.69065421 L1.4368125,1.12813084 C1.4368125,0.811214953 1.57575,0.511869159 1.81790625,0.306728972 C2.06015625,0.101682243 2.37928125,0.0137383178 2.69259375,0.0645794393 C4.384875,0.340560748 13.3656563,1.71728972 24,1.71728972 C34.6343438,1.71728972 43.615125,0.340560748 45.3073125,0.0645794393 C45.6209063,0.0130841121 45.93975,0.101588785 46.1819063,0.306728972 Z M45.859125,12.2548598 C46.2480938,12.2548598 46.5632813,12.5690654 46.5632813,12.9568224 L46.5632813,21.5125234 C46.5632813,21.8294393 46.4243438,22.128785 46.1821875,22.3339252 C45.9400313,22.538972 45.6208125,22.6276636 45.3075,22.5760748 C43.6152188,22.3000935 34.6344375,20.9233645 24.0000938,20.9233645 C13.36575,20.9233645 4.38496875,22.3000935 2.69259375,22.5760748 C2.6341875,22.5857009 2.5755,22.5903738 2.51728125,22.5903738 C2.26275,22.5903738 2.0150625,22.5009346 1.818,22.3340187 C1.57584375,22.1288785 1.43690625,21.8295327 1.43728125,21.5125234 L1.43728125,12.9568224 C1.43728125,12.5691589 1.7525625,12.2548598 2.1414375,12.2548598 C2.5303125,12.2548598 2.84559375,12.5690654 2.84559375,12.9568224 L2.84559375,21.1296262 C5.688,20.681028 14.0196563,19.5194393 24.0002813,19.5194393 C33.9814688,19.5194393 42.3132188,20.6811215 45.1549688,21.1296262 L45.1549688,12.9568224 C45.1549688,12.5691589 45.4701563,12.2548598 45.859125,12.2548598 Z M43.286625,3.67037383 C43.57875,3.9264486 43.746375,4.29588785 43.746375,4.68392523 L43.746375,17.9566355 C43.746375,18.3445794 43.57875,18.7141121 43.286625,18.9701869 C42.9947812,19.2260748 42.606,19.3441121 42.2207812,19.2947664 C38.0333437,18.7566355 31.4730937,18.1152336 24,18.1152336 C16.5275625,18.1152336 9.9669375,18.7566355 5.77921875,19.2947664 C5.72146875,19.3021495 5.66371875,19.3057944 5.60625,19.3057944 C5.279625,19.3057944 4.961625,19.187757 4.713375,18.9701869 C4.42125,18.7141121 4.253625,18.3446729 4.253625,17.9566355 L4.253625,4.68383178 C4.253625,4.29588785 4.42125,3.92635514 4.713375,3.67028037 C5.0053125,3.41439252 5.3938125,3.29607477 5.77921875,3.34570093 C9.96665625,3.88383178 16.5269062,4.52523364 24,4.52523364 C31.4724375,4.52523364 38.0330625,3.88392523 42.2207812,3.34579439 C42.6061875,3.29635514 42.9947812,3.41448598 43.286625,3.67037383 Z M24,16.7114019 C31.5105,16.7114019 38.1069375,17.3527103 42.3379688,17.8943925 L42.3379688,4.74626168 C38.1065625,5.28794393 31.5098438,5.92925234 24,5.92925234 C16.4895,5.92925234 9.8930625,5.28794393 5.66203125,4.74626168 L5.66203125,17.8943925 C9.8934375,17.3527103 16.4901562,16.7114019 24,16.7114019 Z M47.1204375,36.1051402 C47.6055,36.1051402 48,36.4985047 47.9999063,36.9819626 L47.9999063,39.0728972 C47.9999063,39.5563551 47.6054063,39.9497196 47.1203438,39.9497196 L0.8795625,39.9497196 C0.39459375,39.9497196 4.05009359e-13,39.5564486 4.05009359e-13,39.0728972 L4.05009359e-13,36.9819626 C4.05009359e-13,36.4985047 0.3945,36.1051402 0.8795625,36.1051402 L1.9018125,36.1051402 L1.9018125,32.4892523 C1.9018125,30.8126168 3.2701875,29.4485047 4.9520625,29.4485047 L6.19865625,29.4485047 L6.19865625,27.4956075 C6.19865625,25.818972 7.56703125,24.4548598 9.24890625,24.4548598 L13.110375,24.4548598 C14.05275,24.4548598 14.8965,24.883271 15.4564688,25.5547664 C16.0164375,24.883271 16.8602813,24.4548598 17.8026563,24.4548598 L21.6639375,24.4548598 C22.6063125,24.4548598 23.4500625,24.883271 24.0100313,25.5547664 C24.57,24.883271 25.41375,24.4548598 26.356125,24.4548598 L30.2175,24.4548598 C31.159875,24.4548598 32.003625,24.883271 32.5635938,25.5547664 C33.1235625,24.883271 33.9673125,24.4548598 34.9096875,24.4548598 L38.7711563,24.4548598 C40.4530313,24.4548598 41.8214063,25.818972 41.8214063,27.4956075 L41.8214063,29.4485047 L43.027875,29.4485047 C44.70975,29.4485047 46.078125,30.8126168 46.078125,32.4892523 L46.078125,36.1051402 L47.1204375,36.1051402 Z M41.1171563,30.8525234 L39.1663125,30.8525234 C39.111375,30.8525234 39.0570938,30.855514 39.0034688,30.8607477 C38.9780625,30.863271 38.9533125,30.8680374 38.9282813,30.8716822 C38.9008125,30.8757009 38.8731563,30.8788785 38.8461563,30.8842056 C38.8142813,30.8905607 38.7831563,30.8991589 38.7519375,30.9073832 C38.7328125,30.9123364 38.7134063,30.9164486 38.6946563,30.9220561 C38.6600625,30.9325234 38.6264063,30.9449533 38.5928438,30.9575701 C38.5783125,30.9629907 38.5635,30.967757 38.5491563,30.9735514 C38.5140938,30.9879439 38.4799688,31.0041121 38.4460313,31.0207477 C38.434125,31.0266355 38.4218438,31.0318692 38.410125,31.0380374 C38.376,31.0557944 38.3428125,31.0753271 38.3100938,31.0954206 C38.2994063,31.1019626 38.2884375,31.1081308 38.2779375,31.1149533 C38.2457813,31.1357009 38.2146563,31.1580374 38.1840938,31.1809346 C38.1737813,31.1885981 38.1632813,31.1959813 38.15325,31.2039252 C38.1238125,31.2270093 38.0954063,31.2514953 38.0676563,31.2765421 C38.0573438,31.2857944 38.0469375,31.2948598 38.0369063,31.3043925 C38.0106563,31.3292523 37.9854375,31.3553271 37.960875,31.3818692 C37.9504688,31.3930841 37.9400625,31.4042056 37.9300313,31.4157009 C37.9071563,31.4418692 37.8853125,31.468972 37.8640313,31.4965421 C37.8537188,31.5099065 37.8435,31.523271 37.8336563,31.5370093 C37.8140625,31.5641121 37.7954063,31.5919626 37.7775,31.6202804 C37.7676563,31.6357944 37.758,31.6514953 37.7487188,31.6673832 C37.7324063,31.6953271 37.7168438,31.7237383 37.702125,31.7527103 C37.6932188,31.7701869 37.6846875,31.7878505 37.6764375,31.8057009 C37.663125,31.834486 37.6504688,31.8637383 37.63875,31.8933645 C37.63125,31.9123364 37.6244063,31.9314953 37.6176563,31.9507477 C37.6071563,31.9807477 37.5972188,32.011028 37.5884063,32.0417757 C37.582875,32.0613084 37.578,32.0811215 37.573125,32.1009346 C37.5653438,32.1326168 37.558125,32.164486 37.5522188,32.1969159 C37.5486563,32.2161682 37.5460313,32.2357944 37.5432188,32.2553271 C37.5383438,32.2892523 37.5338438,32.323271 37.531125,32.3578505 C37.5276563,32.4013084 37.5244688,32.4448598 37.5244688,32.4892523 L37.5244688,36.1051402 L44.6697188,36.1051402 L44.6697188,32.4892523 C44.6697188,31.586729 43.933125,30.8524299 43.0277813,30.8524299 L41.1171563,30.8525234 Z M33.26775,27.4956075 L33.26775,29.4484112 L34.4742188,29.4484112 C34.5302813,29.4484112 34.5859688,29.4501869 34.641375,29.4531776 C34.6561875,29.4540187 34.6708125,29.455514 34.6855313,29.4565421 C34.7266875,29.4594393 34.76775,29.4626168 34.8085313,29.4671028 C34.8235313,29.468785 34.8383438,29.4709346 34.85325,29.4728037 C34.8943125,29.4779439 34.9352813,29.4836449 34.975875,29.4903738 C34.9884375,29.4925234 35.0009063,29.4948598 35.013375,29.4971028 C35.0573438,29.5049533 35.1009375,29.5136449 35.14425,29.5233645 C35.1527813,29.5253271 35.1613125,29.5272897 35.16975,29.5292523 C35.2187813,29.5407477 35.26725,29.5533645 35.3153438,29.5671028 C35.3179688,29.5678505 35.3206875,29.5685981 35.3233125,29.5693458 C35.9161875,29.7409346 36.435375,30.0869159 36.8202188,30.5484112 C37.2050625,30.0869159 37.7241563,29.741028 38.3170313,29.5693458 C38.3198438,29.5685981 38.3226563,29.5678505 38.325375,29.5670093 C38.373375,29.553271 38.42175,29.5406542 38.4706875,29.5292523 C38.4792188,29.5272897 38.4878438,29.5253271 38.496375,29.5233645 C38.5396875,29.5136449 38.5832813,29.5049533 38.6271563,29.4971028 C38.6397188,29.4948598 38.6522813,29.4924299 38.6648438,29.4903738 C38.7054375,29.4837383 38.7464063,29.4780374 38.7874688,29.4728972 C38.802375,29.471028 38.8171875,29.4688785 38.8321875,29.4671963 C38.872875,29.4627103 38.9140313,29.4594393 38.9551875,29.4566355 C38.9699063,29.4556075 38.9845313,29.4541121 38.9993438,29.453271 C39.0546563,29.4502804 39.1103438,29.4485047 39.1665,29.4485047 L40.413,29.4485047 L40.413,27.4956075 C40.413,26.5930841 39.6764063,25.858785 38.7710625,25.858785 L34.9096875,25.858785 C34.0043438,25.858785 33.26775,26.5930841 33.26775,27.4956075 Z M32.5635938,30.8525234 L30.6128438,30.8525234 C30.5579063,30.8525234 30.503625,30.855514 30.45,30.8607477 C30.4245938,30.863271 30.3998438,30.8680374 30.3748125,30.8716822 C30.3473438,30.8757009 30.3196875,30.8788785 30.2926875,30.8842056 C30.2608125,30.8905607 30.2296875,30.8991589 30.1984688,30.9073832 C30.1793438,30.9123364 30.1599375,30.9164486 30.1411875,30.9220561 C30.1065938,30.9325234 30.0729375,30.9449533 30.039375,30.9575701 C30.0248438,30.9629907 30.0100313,30.967757 29.9956875,30.9735514 C29.960625,30.9879439 29.9265,31.0041121 29.8925625,31.0207477 C29.8806563,31.0266355 29.868375,31.0318692 29.8566563,31.0380374 C29.8225313,31.0557944 29.7893438,31.0753271 29.756625,31.0954206 C29.7459375,31.1019626 29.7349688,31.1081308 29.7244688,31.1149533 C29.6923125,31.1357009 29.6611875,31.1580374 29.630625,31.1809346 C29.6203125,31.1885981 29.6098125,31.1959813 29.5997813,31.2039252 C29.5703438,31.2270093 29.5419375,31.2514953 29.5141875,31.2765421 C29.503875,31.2857944 29.4934688,31.2948598 29.4834375,31.3043925 C29.4571875,31.3292523 29.4319688,31.3553271 29.4074063,31.3818692 C29.397,31.3930841 29.3865938,31.4042056 29.3765625,31.4157009 C29.3536875,31.4418692 29.3318438,31.468972 29.3105625,31.4965421 C29.30025,31.5099065 29.2900313,31.523271 29.2801875,31.5370093 C29.2605938,31.5641121 29.2419375,31.5919626 29.2240313,31.6202804 C29.2141875,31.6357944 29.2045313,31.6514953 29.19525,31.6673832 C29.1789375,31.6953271 29.163375,31.7237383 29.1486563,31.7527103 C29.13975,31.7701869 29.1312188,31.7878505 29.1229688,31.8057009 C29.1096563,31.834486 29.097,31.8637383 29.0852813,31.8933645 C29.0777813,31.9123364 29.0709375,31.9314953 29.0641875,31.9507477 C29.0536875,31.9807477 29.04375,32.011028 29.0349375,32.0417757 C29.0294063,32.0613084 29.0245313,32.0811215 29.0196563,32.1009346 C29.011875,32.1326168 29.0046563,32.164486 28.99875,32.1969159 C28.9951875,32.2161682 28.9925625,32.2357944 28.98975,32.2553271 C28.984875,32.2892523 28.980375,32.323271 28.9776563,32.3578505 C28.9741875,32.4013084 28.971,32.4448598 28.971,32.4892523 L28.971,36.1051402 L36.11625,36.1051402 L36.11625,32.4892523 C36.11625,32.444486 36.1130625,32.4004673 36.1095,32.3565421 C36.106875,32.3231776 36.1025625,32.2902804 36.097875,32.2575701 C36.0949688,32.2369159 36.0921563,32.2161682 36.0884063,32.1957944 C36.0826875,32.1642991 36.0755625,32.1333645 36.0680625,32.1025234 C36.063,32.0818692 36.0579375,32.061215 36.052125,32.0408411 C36.0435,32.0107477 36.03375,31.9811215 36.0234375,31.9517757 C36.0165,31.9319626 36.0094688,31.912243 36.0017813,31.8928037 C35.9901563,31.8635514 35.9776875,31.8347664 35.9645625,31.8063551 C35.956125,31.7881308 35.9475,31.7700935 35.9384063,31.7523364 C35.9237813,31.7236449 35.9083125,31.6954206 35.8920938,31.6676636 C35.8827188,31.6516822 35.8730625,31.6358879 35.863125,31.6201869 C35.8452188,31.5919626 35.8266563,31.5642056 35.8071563,31.5371028 C35.7973125,31.5233645 35.7870938,31.51 35.7767813,31.4966355 C35.7555,31.468972 35.7335625,31.4417757 35.7105938,31.415514 C35.7006563,31.4041121 35.6903438,31.3930841 35.680125,31.3820561 C35.655375,31.3553271 35.6300625,31.3291589 35.603625,31.3041121 C35.5937813,31.2947664 35.5835625,31.2858879 35.5735313,31.2768224 C35.5455,31.2515888 35.517,31.2269159 35.4872813,31.2036449 C35.4774375,31.1958879 35.4673125,31.1886916 35.4572813,31.181215 C35.4264375,31.1581308 35.3950313,31.1356075 35.3625938,31.1146729 C35.352375,31.1080374 35.3416875,31.1020561 35.3312813,31.0957009 C35.2981875,31.0754206 35.2648125,31.0557009 35.2303125,31.037757 C35.218875,31.0317757 35.2069688,31.0266355 35.1953438,31.0209346 C35.1612188,31.0041121 35.1267188,30.987757 35.0912813,30.9733645 C35.0772188,30.9676636 35.0626875,30.9630841 35.0484375,30.957757 C35.0145938,30.9450467 34.9806563,30.9324299 34.9457813,30.9219626 C34.9272188,30.9164486 34.9080938,30.9123364 34.8893438,30.9074766 C34.8578438,30.8991589 34.8264375,30.8905607 34.7942813,30.8841121 C34.7675625,30.878785 34.74,30.8757009 34.7127188,30.8716822 C34.6875,30.8679439 34.6626563,30.8631776 34.6370625,30.8606542 C34.5834375,30.8553271 34.5291563,30.8524299 34.4742188,30.8524299 L32.5635938,30.8524299 L32.5635938,30.8525234 Z M26.356125,25.858785 C25.4507813,25.858785 24.7141875,26.5930841 24.7141875,27.4956075 L24.7142813,27.4956075 L24.7142813,29.4484112 L25.92075,29.4484112 C25.9768125,29.4484112 26.0325,29.4501869 26.0879063,29.4531776 C26.1027188,29.4540187 26.1173438,29.455514 26.1320625,29.4565421 C26.1732188,29.4594393 26.2142813,29.4626168 26.2550625,29.4671028 C26.2700625,29.468785 26.284875,29.4709346 26.2997813,29.4728037 C26.3408438,29.4779439 26.3818125,29.4836449 26.4224063,29.4903738 C26.4349688,29.4925234 26.4474375,29.4948598 26.4599063,29.4971028 C26.503875,29.5049533 26.5474688,29.5136449 26.5907813,29.5233645 C26.5993125,29.5253271 26.6078438,29.5272897 26.6162813,29.5292523 C26.6653125,29.5407477 26.7137813,29.5533645 26.761875,29.5671028 C26.7645,29.5678505 26.7672188,29.5685981 26.7698438,29.5693458 C27.3627188,29.7409346 27.8819063,30.0869159 28.26675,30.5484112 C28.6515938,30.0869159 29.1706875,29.741028 29.7635625,29.5693458 C29.766375,29.5685981 29.7691875,29.5678505 29.7719063,29.5670093 C29.8199063,29.553271 29.8682813,29.5406542 29.9172188,29.5292523 C29.92575,29.5272897 29.934375,29.5253271 29.9429063,29.5233645 C29.9862188,29.5136449 30.0298125,29.5049533 30.0736875,29.4971028 C30.08625,29.4948598 30.0988125,29.4924299 30.111375,29.4903738 C30.151875,29.4837383 30.1928438,29.4780374 30.2339063,29.4728972 C30.2488125,29.471028 30.263625,29.4688785 30.278625,29.4671963 C30.3193125,29.4627103 30.360375,29.4594393 30.401625,29.4566355 C30.4163438,29.4556075 30.4309688,29.4541121 30.4457813,29.453271 C30.5010938,29.4502804 30.5567813,29.4485047 30.6129375,29.4485047 L31.8594375,29.4485047 L31.8594375,27.4956075 C31.8594375,26.5930841 31.1228438,25.858785 30.2175,25.858785 L26.356125,25.858785 Z M24.0100313,30.8524299 L22.0592813,30.8524299 C22.0052813,30.8524299 21.9520313,30.8553271 21.8993438,30.8604673 C21.8622188,30.8641121 21.8258438,30.8702804 21.7894688,30.8764486 C21.7754063,30.878785 21.7610625,30.8801869 21.7470938,30.8828972 C21.0455625,31.0208411 20.4894375,31.6130841 20.4252188,32.3437383 C20.4250313,32.3454206 20.42475,32.3469159 20.4245625,32.3485047 C20.420625,32.3950467 20.4174375,32.4417757 20.4174375,32.4892523 L20.4174375,36.1051402 L27.5626875,36.1051402 L27.5626875,32.4892523 C27.5626875,32.444486 27.5595,32.4004673 27.5559375,32.3565421 C27.5533125,32.3231776 27.549,32.2902804 27.5443125,32.2575701 C27.5414063,32.2369159 27.5385938,32.2161682 27.5348438,32.1957944 C27.529125,32.1642991 27.522,32.1333645 27.5145,32.1025234 C27.5094375,32.0818692 27.504375,32.061215 27.4985625,32.0408411 C27.4899375,32.0107477 27.4801875,31.9811215 27.469875,31.9517757 C27.4629375,31.9319626 27.4559063,31.912243 27.4482188,31.8928037 C27.4365938,31.8635514 27.424125,31.8347664 27.411,31.8063551 C27.4025625,31.7881308 27.3939375,31.7700935 27.3848438,31.7523364 C27.3702188,31.7236449 27.35475,31.6954206 27.3385313,31.6676636 C27.3291563,31.6516822 27.3195,31.6358879 27.3095625,31.6201869 C27.2916563,31.5919626 27.2730938,31.5642056 27.2535938,31.5371028 C27.24375,31.5233645 27.2335313,31.51 27.2232188,31.4966355 C27.2019375,31.468972 27.18,31.4417757 27.1570313,31.415514 C27.1470938,31.4041121 27.1367813,31.3930841 27.1265625,31.3820561 C27.1018125,31.3553271 27.0765,31.3291589 27.0500625,31.3041121 C27.0402188,31.2947664 27.03,31.2858879 27.0199688,31.2768224 C26.9919375,31.2515888 26.9634375,31.2269159 26.9337188,31.2036449 C26.923875,31.1958879 26.91375,31.1886916 26.9037188,31.181215 C26.872875,31.1581308 26.8414688,31.1356075 26.8090313,31.1146729 C26.7988125,31.1080374 26.788125,31.1020561 26.7777188,31.0957009 C26.744625,31.0754206 26.71125,31.0557009 26.67675,31.037757 C26.6653125,31.0317757 26.6534063,31.0266355 26.6417813,31.0209346 C26.6076563,31.0041121 26.5731563,30.987757 26.5377188,30.9733645 C26.5236563,30.9676636 26.509125,30.9630841 26.494875,30.957757 C26.4610313,30.9450467 26.4270938,30.9324299 26.3922188,30.9219626 C26.3736563,30.9164486 26.3545313,30.9123364 26.3357813,30.9074766 C26.3042813,30.8991589 26.272875,30.8905607 26.2407188,30.8841121 C26.214,30.878785 26.1864375,30.8757009 26.1591563,30.8716822 C26.1339375,30.8679439 26.1090938,30.8631776 26.0835,30.8606542 C26.029875,30.8553271 25.9755938,30.8524299 25.9206563,30.8524299 L24.0100313,30.8524299 Z M16.160625,27.4956075 L16.160625,29.4485047 L17.3671875,29.4485047 L17.38725,29.4485047 C18.3255,29.4485047 19.1642813,29.8620561 19.7235938,30.5250467 C20.1875625,29.9750467 20.8441875,29.5974766 21.5899688,29.4845794 C21.5980313,29.4833645 21.6061875,29.4824299 21.61425,29.481215 C21.6555,29.4753271 21.6968438,29.4697196 21.7385625,29.4654206 C21.761625,29.4629907 21.7850625,29.4614953 21.8083125,29.4596262 C21.837375,29.4572897 21.86625,29.454486 21.8955,29.4529907 C21.9497813,29.4500935 22.0043438,29.4485047 22.059375,29.4485047 L23.305875,29.4485047 L23.305875,27.4956075 C23.305875,26.5930841 22.5692813,25.858785 21.6639375,25.858785 L17.8026563,25.858785 C16.8973125,25.858785 16.160625,26.5930841 16.160625,27.4956075 Z M15.456375,30.8525234 L13.505625,30.8525234 C13.451625,30.8525234 13.398375,30.8554206 13.3456875,30.8605607 C13.3086563,30.8642991 13.2722813,30.8703738 13.2359063,30.8765421 C13.2218438,30.8788785 13.2074063,30.8802804 13.1934375,30.8829907 C12.4918125,31.0209346 11.9356875,31.6131776 11.8714688,32.3438318 C11.8712813,32.3454206 11.871,32.3469159 11.8708125,32.3485047 C11.866875,32.3950467 11.8636875,32.4417757 11.8636875,32.4892523 L11.8636875,36.1051402 L19.0089375,36.1051402 L19.0089375,32.4892523 C19.0089375,31.586729 18.2723438,30.8524299 17.367,30.8524299 L15.456375,30.8524299 L15.456375,30.8525234 Z M7.60696875,27.4956075 L7.60696875,29.4485047 L8.8134375,29.4485047 L8.83359375,29.4485047 C9.77184375,29.4485047 10.610625,29.8620561 11.1699375,30.5251402 C11.6339063,29.9750467 12.2904375,29.5974766 13.0363125,29.4845794 C13.0444688,29.4833645 13.0527188,29.4824299 13.060875,29.481215 C13.1020313,29.4753271 13.1432813,29.4697196 13.185,29.4654206 C13.2080625,29.4629907 13.2314063,29.4614953 13.2546563,29.4596262 C13.2837188,29.4572897 13.3126875,29.454486 13.3419375,29.4529907 C13.3962188,29.4500935 13.4507813,29.4485047 13.5058125,29.4485047 L14.7522188,29.4485047 L14.7522188,27.4956075 C14.7522188,26.5930841 14.015625,25.858785 13.1102813,25.858785 L9.24890625,25.858785 C8.3435625,25.858785 7.60696875,26.5930841 7.60696875,27.4956075 Z M3.310125,32.4892523 L3.310125,36.1051402 L10.455375,36.1051402 L10.455375,32.4892523 C10.455375,31.586729 9.71878125,30.8524299 8.8134375,30.8524299 L6.9028125,30.8524299 L4.9520625,30.8524299 C4.04671875,30.8524299 3.310125,31.586729 3.310125,32.4892523 Z M46.5915938,38.5457944 L46.5915938,37.5091589 L1.40840625,37.5091589 L1.40840625,38.5457944 L46.5915938,38.5457944 Z" id="Combined-Shape"></path>
            </g>
        </g>
    </g>
</svg>